<svg width="1180" height="400" viewBox="0 0 1180 400" fill="none" xmlns="http://www.w3.org/2000/svg">
<g clip-path="url(#clip0_464_979)">
<rect width="1180" height="400" fill="#3442D9"/>
<path d="M0 0H1180V400H0V0Z" fill="#3442D9"/>
<rect x="540.93" y="170.514" width="153.765" height="6.32575" fill="#7F8AFF"/>
<rect x="540.93" y="176.839" width="153.765" height="22.3667" fill="#A9B0FF"/>
<path d="M477.293 103.916C477.293 98.9245 481.339 94.8783 486.331 94.8783H626.11C631.101 94.8783 635.148 98.9245 635.148 103.916V161.476C635.148 166.467 631.101 170.514 626.11 170.514H486.331C481.339 170.514 477.293 166.467 477.293 161.476V103.916Z" fill="#5865F2"/>
<path d="M495.818 103.916C495.818 98.9245 499.864 94.8783 504.855 94.8783H644.635C649.626 94.8783 653.672 98.9245 653.672 103.916V161.476C653.672 166.467 649.626 170.514 644.635 170.514H504.855C499.864 170.514 495.818 166.467 495.818 161.476V103.916Z" fill="#A9B0FF"/>
<rect x="653.56" y="139.152" width="46.5054" height="33.6985" fill="#5865F2"/>
<rect x="691.461" y="139.108" width="19.488" height="60.2192" rx="2.82424" fill="#7F8AFF"/>
<path d="M651.536 199.205H661.28L659.02 213.632H653.795L651.536 199.205Z" fill="#0C1AAD"/>
<path d="M696.604 199.205H706.348L704.088 213.632H698.863L696.604 199.205Z" fill="#0C1AAD"/>
<path d="M482.542 199.205H492.286L490.027 213.632H484.802L482.542 199.205Z" fill="#0C1AAD"/>
<path d="M527.611 199.205H537.354L535.095 213.632H529.87L527.611 199.205Z" fill="#0C1AAD"/>
<path d="M658.49 203.491L667.935 206.584L660.341 211.846L648.351 209.382L645.254 191.663H656.544V200.807C656.544 202.028 657.329 203.111 658.49 203.491Z" fill="#FFC81D"/>
<path d="M647.855 213.226C646.166 212.698 644.021 208.266 647.485 204.255C647.855 207.383 651.25 207.806 652.481 207.383C654.213 204.888 656.647 203.687 658.124 203.335L661.296 204.413C658.932 203.906 656.122 206.718 655.032 208.266C655.665 208.758 657.797 209.638 661.259 209.215C665.586 208.688 664.561 205.096 667.591 206.155C676.351 209.215 671.446 213.578 666.803 213.578C662.159 213.578 649.544 213.754 647.855 213.226Z" fill="#F259A7"/>
<path d="M646.936 201.218C648.865 200.841 653.467 199.716 656.448 198.232L646.009 196.1L646.936 201.218Z" fill="black"/>
<path d="M642.75 203.491L652.195 206.584L644.601 211.846L632.611 209.382L629.514 191.663H640.804V200.807C640.804 202.028 641.589 203.111 642.75 203.491Z" fill="#FFE456"/>
<path d="M632.115 213.226C630.426 212.698 628.281 208.266 631.745 204.255C632.115 207.383 635.51 207.806 636.741 207.383C638.473 204.888 640.907 203.687 642.384 203.335L645.556 204.413C643.192 203.906 640.382 206.718 639.292 208.266C639.925 208.758 642.057 209.638 645.519 209.215C649.846 208.688 648.821 205.096 651.851 206.155C660.611 209.215 655.706 213.578 651.063 213.578C646.419 213.578 633.804 213.754 632.115 213.226Z" fill="#FF78B9"/>
<path d="M631.196 201.218C633.125 200.841 637.727 199.716 640.708 198.232L630.269 196.1L631.196 201.218Z" fill="black"/>
<ellipse cx="651.763" cy="191.576" rx="7.44441" ry="2.51585" fill="black"/>
<path d="M621.732 170.463C610.379 165.922 614.82 154.998 618.825 149.509H642.687L658.471 161.622C660.545 163.214 661.617 165.79 661.283 168.384L658.159 192.674C654.6 195.493 647.702 194.85 645.329 192.674L642.984 170.463H621.732Z" fill="#1217A4"/>
<path d="M646.442 192.861C644.464 192.255 644.189 191.34 644.931 190.562C644.456 190.561 643.692 191.021 643.521 192.861C643.307 195.16 643.592 197.682 647.155 198.201C650.717 198.72 655.611 199.183 658.151 197.793C660.182 196.681 660.932 190.395 658.373 190.395C658.911 190.71 659.121 191.372 658.484 191.971C656.275 194.047 648.865 193.602 646.442 192.861Z" fill="#8CD9FF"/>
<ellipse cx="635.517" cy="191.575" rx="7.44441" ry="2.51585" fill="black"/>
<path d="M644.519 160.212L627.854 152.179L642.094 163.953L645.209 192.137L647.998 166.48C648.282 163.865 646.889 161.354 644.519 160.212Z" fill="black"/>
<path d="M605.485 170.463C594.133 165.922 598.573 154.997 602.578 149.509H626.441L642.224 161.622C644.299 163.214 645.37 165.79 645.037 168.384L641.913 192.674C638.353 195.493 631.456 194.85 629.082 192.674L626.737 170.463H605.485Z" fill="#1217A4"/>
<path opacity="0.35" d="M631.233 193.119L629.718 164.346C629.623 162.546 628.138 161.135 626.335 161.135C620.771 161.135 612.519 161.135 608.337 161.135C601.959 161.135 600.327 151.345 605.371 147.934" stroke="#8CD9FF" stroke-width="2"/>
<path d="M630.196 192.861C628.217 192.255 627.943 191.34 628.684 190.561C628.209 190.561 627.445 191.021 627.274 192.861C627.061 195.16 627.346 197.681 630.908 198.201C634.471 198.72 639.364 199.183 641.904 197.793C643.936 196.681 644.686 190.395 642.127 190.395C642.664 190.71 642.874 191.372 642.238 191.971C640.029 194.047 632.618 193.602 630.196 192.861Z" fill="#8CD9FF"/>
<path d="M657.573 115.839C655.793 111.092 643.599 95.5303 637.517 90.7095L642.666 114.949C643.16 116.852 642.759 121.499 643.352 124.822C644.094 128.975 647.365 130.686 649.812 130.612C652.26 130.538 659.353 120.585 657.573 115.839Z" fill="#8CD9FF"/>
<path d="M646.671 145.208C644.742 142.39 643.852 142.168 643.63 138.237C643.63 130.375 643.852 116.136 642.74 102.563C641.627 88.9908 630.502 82.8349 611.071 85.9499C595.526 88.4418 593.815 105.085 594.903 113.095C596.188 119.745 597.78 134.87 593.865 142.168C588.97 151.29 594.606 162.192 599.13 160.932C603.209 150.919 637.474 150.326 642.369 150.623C647.264 150.919 648.599 148.027 646.671 145.208Z" fill="url(#paint0_linear_464_979)"/>
<path d="M642.084 104.518C642.084 104.518 644.697 111.296 643.567 118.71" stroke="#62B8FA" stroke-width="2" stroke-linecap="round" stroke-linejoin="round"/>
<path d="M588.524 103.676C590.453 99.5223 591.046 95.9623 602.913 89.2874L606.621 91.6607C604.594 94.5779 604.934 98.83 602.913 103.676C601.494 107.076 600.638 114.751 599.501 117.47C603.654 118.805 612.851 119.844 613.593 123.107C614.334 126.37 614.779 136.902 606.621 135.715C598.463 134.529 588.524 128.892 587.634 124.887C586.744 120.882 586.596 107.829 588.524 103.676Z" fill="#8CD9FF"/>
<path d="M613.296 127.446C613.296 130.62 612.443 134.084 609.736 134.603C608.107 134.915 606.732 132.029 606.732 128.855C606.732 125.68 608.114 122.901 609.736 122.551C612.999 121.846 613.296 124.271 613.296 127.446Z" fill="black"/>
<path d="M608.253 123.515C609.81 121.438 611.85 122.44 612.221 122.848C612.592 123.256 609.81 131.562 609.81 131.562L606.843 130.079C606.488 128.358 606.695 125.592 608.253 123.515Z" fill="#FFE456"/>
<path d="M631.504 73.082C629.724 71.2278 611.442 68.0759 607.437 71.4876C606.374 71.2156 606.429 74.0909 606.992 74.9734C609.736 79.2752 623.16 82.9091 627.239 82.0191C631.318 81.1291 633.284 74.9361 631.504 73.082Z" fill="black"/>
<path d="M612.624 13.7773C613.685 14.9381 614.021 17.5235 613.452 19.1344C613.186 19.8884 613.066 21.0115 613.736 21.4468C615.234 22.4185 617.064 22.8166 617.485 20.029C618.181 15.4065 613.283 13.2579 614.956 11.7383C616.63 10.2188 615.493 6.57402 613.374 7.44328C611.254 8.31255 611.169 12.186 612.624 13.7773Z" fill="#FFE75C"/>
<path d="M621.826 12.9559C622.682 14.2751 622.589 16.8805 621.764 18.3763C621.378 19.0764 621.075 20.1646 621.665 20.704C622.983 21.9082 624.723 22.6011 625.595 19.9203C627.041 15.4746 622.561 12.5516 624.461 11.3271C626.361 10.1027 625.838 6.32088 623.605 6.83071C621.371 7.34055 620.652 11.1476 621.826 12.9559Z" fill="#FFE75C"/>
<path d="M606.961 41.4141C611.702 51.8338 610.194 80.1629 606.961 92.327C615.635 99.807 629.801 95.7163 632.294 92.327C626.874 73.6372 625.682 64.9756 625.682 48.1824C633.342 49.0895 634.306 45.4714 641.41 48.1824C651.434 52.0073 655.239 47.1316 655.693 43.3016C656.914 42.6458 657.59 41.6323 656.962 40.4646C655.249 37.2743 655.859 32.2681 647.004 31.2194C641.701 30.5914 632.952 26.2691 637.271 22.5983C641.589 18.9275 642.67 9.79456 638.841 9.341C635.777 8.97815 629.586 16.0122 626.874 19.5746C624.92 17.9092 616.493 18.9427 612.524 19.6676C608.547 15.4126 600.099 8.03916 598.127 12.5854C596.155 17.1316 600.429 23.4134 602.813 25.9861C602.616 27.6555 603.168 33.0783 606.961 41.4141Z" fill="#FFE75C"/>
<ellipse cx="645" cy="37.1061" rx="1.44624" ry="2.00248" transform="rotate(18.5026 645 37.1061)" fill="black"/>
<ellipse rx="1.44624" ry="2.00248" transform="matrix(-0.870155 0.492779 0.492779 0.870155 651.394 36.7206)" fill="black"/>
<path d="M629.238 21.3558L628.618 23.3769" stroke="black" stroke-width="2" stroke-linecap="round"/>
<path d="M631.467 22.3663L630.175 24.0398" stroke="black" stroke-width="2" stroke-linecap="round"/>
<path d="M638.003 39.8513C635.976 44.8504 654.272 44.483 656.387 43.347" stroke="black" stroke-width="2" stroke-linecap="round"/>
<path d="M633.008 28.147C632.876 29.2467 631.916 29.6179 630.688 29.7187C629.46 29.8196 627.062 28.6761 625.83 26.6038C624.598 24.5315 626.056 22.311 628.648 22.9698C631.241 23.6286 633.278 25.8941 633.008 28.147Z" fill="white"/>
<path d="M617.973 45.3618C619.159 46.1529 622.363 47.8241 625.686 48.1801L625.822 56.4959C625.649 56.3229 624.826 55.389 623.461 53.0751C622.096 50.7611 619.234 46.9687 617.973 45.3618Z" fill="black"/>
<path d="M614.641 56.3507C611.835 56.3506 612.172 58.5954 609.927 59.2687L609.927 68.9206C611.686 69.7437 614.91 70.8959 615.988 68.9206C617.335 66.4516 614.641 64.9926 615.988 62.4113C617.335 59.83 617.447 56.3508 614.641 56.3507Z" fill="#FFC619"/>
<path d="M618.439 73.4653C617.944 71.7001 618.58 68.6641 621.263 68.8759C624.793 68.8759 625.429 71.9119 625.429 73.4653C625.429 74.0686 625.146 78.1252 623.946 78.4782C622.746 78.8313 621.263 79.1843 620.769 76.8543C620.274 74.5243 618.933 75.2304 618.439 73.4653Z" fill="#FFC619"/>
<path d="M603.46 14.6985C600.847 13.5688 597.529 17.0991 604.095 23.1712" stroke="#FFC619" stroke-width="2" stroke-linecap="round"/>
<path d="M636.11 12.3163C638.531 10.8183 642.328 13.8279 636.715 20.7912" stroke="#FFC619" stroke-width="2" stroke-linecap="round"/>
<path d="M617.722 39.8342C616.098 40.8227 616.169 43.3645 618.216 45.5533C623.3 48.4905 628.572 48.4716 630.572 48.095C630.784 47.7184 630.841 46.6829 629.372 45.5533C627.536 44.1412 624.853 44.706 623.724 42.5878C622.594 40.4696 619.346 38.8457 617.722 39.8342Z" fill="#FFC619"/>
<path d="M611.609 27.981L613.714 28.172" stroke="black" stroke-width="2" stroke-linecap="round"/>
<path d="M612.256 25.4636L614.224 26.7529" stroke="black" stroke-width="2" stroke-linecap="round"/>
<path d="M616.513 25.2134C619.193 25.4607 621.672 26.9638 622.838 28.9124C623.548 30.0971 623.162 31.6445 621.98 32.3588C620.869 33.0308 619.232 33.4626 617.092 32.8066C612.585 31.4249 612.081 24.8043 616.513 25.2134Z" fill="white"/>
<path fill-rule="evenodd" clip-rule="evenodd" d="M622.304 31.7195C623.1 31.131 623.086 29.7596 622.271 28.6563C621.456 27.5531 620.15 27.1358 619.353 27.7243C618.556 28.3127 618.571 29.6842 619.386 30.7874C620.2 31.8906 621.507 32.3079 622.304 31.7195Z" fill="black"/>
<ellipse cx="630.821" cy="26.6642" rx="1.63057" ry="2.25771" transform="rotate(-40.7671 630.821 26.6642)" fill="black"/>
<path d="M629.724 99.5223C634.618 98.7065 636.287 93.0921 636.695 89.7695L604.458 88.9188C609.401 100.357 624.829 100.338 629.724 99.5223Z" fill="#62B8FA"/>
<path d="M622.967 80.7581C613.177 79.5715 604.871 74.1574 607.689 71.2649C604.203 72.8965 604.722 75.6407 605.167 78.5332C605.612 81.4256 599.983 84.2811 603.988 89.2501C608.232 94.5156 624.829 98.15 631.021 95.8138C635.498 94.125 638.171 89.9547 636.91 86.2464C635.65 82.5381 632.238 81.4998 633.425 77.569C634.374 74.4244 631.726 72.8842 630.243 72.4145C634.069 74.4169 630.799 81.7075 622.967 80.7581Z" fill="#8CD9FF"/>
<path d="M643.687 122.249C644.123 125.394 645.443 128.707 648.196 128.85C649.853 128.935 650.818 125.888 650.382 122.744C649.945 119.599 648.195 117.036 646.54 116.912C643.211 116.662 643.25 119.105 643.687 122.249Z" fill="black"/>
<path d="M647.792 117.098C645.955 115.264 642.646 117.867 642.337 118.324C642.027 118.781 644.552 126.481 644.552 126.481L650.483 123.939C650.591 122.186 649.629 118.932 647.792 117.098Z" fill="#FFE456"/>
<path fill-rule="evenodd" clip-rule="evenodd" d="M625.251 128.937L625.013 128.992C624.025 129.221 623.173 129.842 622.651 130.712L619.263 136.367C618.407 137.797 616.537 138.235 615.135 137.334C614.284 136.788 613.772 135.844 613.777 134.832L613.836 124.733C613.854 121.594 616.025 118.879 619.082 118.169L627.809 116.145L627.809 116.145L631.292 115.336C634.349 114.627 637.494 116.109 638.892 118.919L643.392 127.961C643.843 128.867 643.798 129.94 643.275 130.805C642.412 132.231 640.541 132.661 639.142 131.755L633.61 128.169C632.759 127.618 631.721 127.436 630.733 127.665L625.251 128.937L625.251 128.937Z" fill="#FF78B9"/>
<path d="M617.036 126.72C614.338 126.908 614.294 124.179 614.294 122.297C608.57 122.297 608.617 131.032 610.812 133.62C613.008 136.207 620.25 135.501 622.211 134.482C624.171 133.463 625.082 129.386 623.201 127.426C621.319 125.465 620.407 126.484 617.036 126.72Z" fill="#FFE456"/>
<path d="M637.185 122.375C639.642 121.386 638.513 118.963 637.707 117.305C642.751 114.854 646.45 122.571 645.623 125.791C644.796 129.01 638.112 131.489 635.948 131.43C633.785 131.372 631.236 128.169 632.055 125.636C632.874 123.104 634.113 123.611 637.185 122.375Z" fill="#FFE456"/>
<path d="M623.074 123.957C622.029 124.106 619.864 126.047 617.251 126.719C618.023 127.615 619.849 130.243 621.88 128.81C625.297 126.398 624.119 123.808 623.074 123.957Z" fill="#FFE456"/>
<path d="M630.288 123.645C631.23 123.219 634.04 123.686 636.553 122.869C636.386 124.015 636.257 127.147 633.825 127.029C629.733 126.831 629.346 124.071 630.288 123.645Z" fill="#FFE456"/>
<path d="M623.399 127.239C622.371 127.483 620.392 129.613 617.851 130.519C618.701 131.341 620.759 133.792 622.65 132.18C625.834 129.468 624.426 126.996 623.399 127.239Z" fill="#FFE456"/>
<path d="M631.744 126.529C632.722 126.191 635.477 126.911 638.054 126.326C637.784 127.452 637.371 130.559 634.96 130.221C630.902 129.651 630.767 126.868 631.744 126.529Z" fill="#FFE456"/>
<path d="M630.262 117.205L621.224 119.297C621.587 119.799 623.082 120.636 626.162 119.966C629.241 119.297 630.178 117.846 630.262 117.205Z" fill="#1217A4"/>
<rect x="617.381" y="120.044" width="2.75418" height="4.36167" rx="0.564847" transform="rotate(-14.1823 617.381 120.044)" fill="white"/>
<rect x="631.336" y="116.891" width="2.75418" height="4.36167" rx="0.564847" transform="rotate(-12.8618 631.336 116.891)" fill="white"/>
<path fill-rule="evenodd" clip-rule="evenodd" d="M394.477 172.054C395.761 172.57 396.603 173.815 396.603 175.199V209.372C396.603 211.244 395.086 212.761 393.214 212.761C391.342 212.761 389.825 211.244 389.825 209.372V183.639L256.794 322.582V354.83C256.794 356.702 255.276 358.219 253.405 358.219C251.533 358.219 250.016 356.702 250.016 354.83V321.222C250.016 320.348 250.353 319.509 250.957 318.878L390.766 172.855C391.723 171.856 393.192 171.538 394.477 172.054Z" fill="#5865F2"/>
<path d="M567.246 168.602C559.786 166.46 558.867 156.495 561.851 150.391L577.477 146.533L601.754 157.646C603.236 158.324 604.52 159.368 605.487 160.68L622.907 184.317L614.651 191.835L592.025 170.795C588.128 171.185 573.215 170.315 567.246 168.602Z" fill="url(#paint1_linear_464_979)"/>
<path d="M572.111 156.7L583.027 163.054C585.117 164.271 586.705 166.193 587.506 168.475L588.35 170.88L583.007 170.69L558.811 162.102L572.111 156.7Z" fill="black"/>
<path d="M540.452 170.463C529.1 165.922 533.54 157.129 537.545 151.641L561.407 149.509L578.73 160.839C581.596 162.713 583.157 166.047 582.76 169.449L579.699 195.715H567.313L565.561 170.463H540.452Z" fill="url(#paint2_linear_464_979)"/>
<path d="M567.165 193.119C574.878 190.227 580.033 193.119 580.033 193.119L579.032 202.759L567.768 202.759L567.165 193.119Z" fill="white"/>
<path d="M608.348 185.93C611.931 178.512 617.656 177.045 617.656 177.045L623.588 184.71L615.441 192.487L608.348 185.93Z" fill="white"/>
<path d="M591.429 205.195C590.662 204.801 588.957 204.21 586.486 205.982L567.483 211.398L567.759 213.518C573.833 214.76 586.774 213.518 589.98 210.511C592.491 208.157 592.196 205.589 591.429 205.195Z" fill="black"/>
<path d="M580.411 200.377C576.084 198.46 571.263 199.575 567.912 200.511C567.415 200.649 567.079 201.111 567.094 201.627L567.379 211.723C569.07 212.138 579.638 212.185 581.705 208.444C583.652 204.922 589.382 203.523 590.811 203.523C590.647 202.637 589.893 201.297 587.45 201.41C586.087 201.474 584.721 201.954 583.571 202.522C582.442 203.079 580.819 202.278 580.819 201.019C580.819 200.743 580.663 200.489 580.411 200.377Z" fill="#1217A4"/>
<path d="M581.77 207.962C584.565 204.615 588.134 203.664 590.77 203.523C591.314 203.523 592.159 204.087 591.716 205.596C591.113 205.033 586.561 204.838 583.116 209.17C579.369 213.88 572.272 213.813 567.448 213.518C566.206 212.621 567.448 211.746 567.448 211.746C571.485 212.14 578.23 212.201 581.77 207.962Z" fill="#63B8FA"/>
<path d="M634.238 177.912C633.412 178.157 631.771 178.906 631.207 181.895L621.199 198.933L622.863 200.276C628.114 196.981 636.617 187.147 636.861 182.758C637.052 179.322 635.065 177.668 634.238 177.912Z" fill="black"/>
<path d="M622.942 182.036C618.488 183.637 615.77 187.772 613.992 190.762C613.728 191.206 613.804 191.771 614.171 192.134L621.349 199.241C622.858 198.373 630.535 191.111 629.448 186.977C628.424 183.085 631.603 178.117 632.637 177.131C631.906 176.603 630.435 176.154 628.747 177.923C627.805 178.909 627.148 180.2 626.708 181.405C626.277 182.588 624.549 183.129 623.68 182.218C623.489 182.018 623.201 181.942 622.942 182.036Z" fill="#1217A4"/>
<path d="M629.161 186.583C628.872 182.232 630.798 179.08 632.608 177.158C633.001 176.783 634.001 176.607 634.723 178.004C633.897 178.013 630.471 181.015 630.969 186.528C631.511 192.522 626.331 197.373 622.638 200.491C621.12 200.699 621.414 199.209 621.414 199.209C624.606 196.707 629.528 192.094 629.161 186.583Z" fill="#63B8FA"/>
<path d="M531.416 127.705C529.785 125.332 525.889 120.816 528.974 118.443L539.575 115.69L531.416 127.705Z" fill="black"/>
<path d="M591.499 116.775C591.606 113.897 592.884 107.84 589.008 107.487L581.772 108.169L578.176 110.995L591.499 116.775Z" fill="black"/>
<path d="M578.168 146.321C569.447 152.195 554.757 152.575 548.502 152.032L550.727 107.013L566.895 103.082C574.287 115.047 586.89 140.447 578.168 146.321Z" fill="white"/>
<path d="M593.01 119.703C591.273 114.226 579.652 104.639 570.233 103.23L576.908 125.406L584.819 134.883C591.033 133.118 594.845 125.492 593.01 119.703Z" fill="url(#paint3_linear_464_979)"/>
<path d="M584.724 119.302C583.344 120.59 580.999 124.242 580.447 128.547" stroke="black" stroke-width="2" stroke-linecap="round"/>
<path d="M525.511 129.337C530.198 121.505 539.528 111.537 543.607 107.532L546.871 119.324L540.789 129.337L551.32 133.119L550.875 141.574C547.934 142.316 540.821 140.254 536.905 139.423C532.01 138.385 519.652 139.127 525.511 129.337Z" fill="#FF78B9"/>
<path d="M528.45 118.805L545.36 105.455L547.288 107.087L543.58 121.92C539.545 116.106 531.812 117.421 528.45 118.805Z" fill="white"/>
<path d="M540.929 130.791C539.88 129.513 536.139 128.162 532.015 129.513" stroke="black" stroke-width="2" stroke-linecap="round"/>
<path d="M589.56 107.575L570.556 103.41L568.059 106.398L579.133 116.94C579.427 109.869 587.147 107.046 589.56 107.575Z" fill="white"/>
<path d="M557.402 119.25C558.811 116.877 558.292 110.498 555.474 107.828L545.063 105.233C541.028 109.089 540.789 116.061 543.681 118.731C537.896 121.549 539.38 130.078 540.937 131.339C536.413 134.973 539.157 142.612 538.86 142.612C537.97 142.761 535.968 148.175 538.861 152.328C541.753 156.481 554.732 156.333 557.921 152.921C560.472 150.192 559.578 145.95 558.811 144.17C562.668 141.796 561.481 132.674 558.811 130.82C560.532 124.056 558.688 120.363 557.402 119.25Z" fill="#EA479D"/>
<path d="M568.549 114.702C565.865 113.991 563.339 106.965 566.655 104.992C566.865 103.781 567.428 101.376 571.155 102.702C574.881 104.029 576.865 110.097 576.996 112.807C580.028 113.944 579.522 119.859 578.891 122.675C581.48 123.875 582.075 130.701 582.049 133.963C583.259 134.99 585.727 138.1 585.917 142.331C586.154 147.62 578.496 148.647 575.654 147.778C570.728 146.515 571.47 140.279 573.207 136.569C568.549 135.384 567.523 127.411 569.418 124.727C566.134 122.517 567.471 117.123 568.549 114.702Z" fill="#EA479D"/>
<path d="M537.526 140.462C532.631 139.423 519.652 139.127 525.511 129.337C532.291 135.308 537.526 130.82 537.526 130.82L551.321 133.119L550.876 141.574C547.934 142.316 541.442 141.292 537.526 140.462Z" fill="#FF78B9"/>
<path fill-rule="evenodd" clip-rule="evenodd" d="M542.521 119.439C542.87 119.176 543.256 118.938 543.681 118.731C543.517 118.58 543.365 118.415 543.222 118.238L543.862 117.951C543.859 117.946 543.86 117.947 543.865 117.952L543.865 117.952C543.885 117.977 543.986 118.097 544.295 118.277C544.639 118.477 545.126 118.685 545.737 118.882C546.954 119.276 548.542 119.59 550.172 119.743C551.805 119.897 553.422 119.883 554.706 119.655C555.348 119.541 555.87 119.38 556.26 119.185C556.651 118.988 556.851 118.786 556.945 118.616L557.557 118.956C557.508 119.06 557.456 119.158 557.402 119.25C557.659 119.472 557.938 119.798 558.207 120.231C557.902 120.537 557.54 120.78 557.158 120.971C556.54 121.282 555.815 121.49 555.055 121.625C553.535 121.894 551.726 121.898 549.985 121.735C548.24 121.571 546.504 121.233 545.121 120.785C544.432 120.562 543.8 120.302 543.289 120.005C543.03 119.855 542.757 119.669 542.521 119.439Z" fill="#D01B81"/>
<path fill-rule="evenodd" clip-rule="evenodd" d="M576.958 112.338L576.386 112.212C576.256 112.799 575.865 113.289 575.201 113.682C574.525 114.082 573.62 114.345 572.63 114.455C571.646 114.565 570.639 114.517 569.796 114.346C568.914 114.167 568.364 113.886 568.138 113.655L567.594 114.189C567.903 114.438 568.225 114.616 568.549 114.702C568.393 115.052 568.232 115.464 568.079 115.92C568.499 116.089 568.95 116.215 569.399 116.306C570.455 116.52 571.671 116.574 572.851 116.443C574.026 116.312 575.228 115.991 576.22 115.403C576.977 114.955 577.639 114.332 578.038 113.509C577.75 113.201 577.405 112.96 576.996 112.807C576.989 112.66 576.976 112.503 576.958 112.338Z" fill="#D01B81"/>
<path fill-rule="evenodd" clip-rule="evenodd" d="M541.67 143.827C541.919 144.368 542.385 144.748 542.841 145.014C543.313 145.289 543.88 145.505 544.482 145.671C545.688 146.004 547.167 146.173 548.628 146.155C550.083 146.136 551.593 145.929 552.841 145.461C554.059 145.004 555.246 144.21 555.643 142.877L553.726 142.307C553.595 142.747 553.131 143.216 552.138 143.589C551.176 143.95 549.914 144.138 548.602 144.155C547.294 144.172 546.007 144.017 545.014 143.743C544.516 143.606 544.124 143.447 543.849 143.287C543.713 143.207 543.62 143.136 543.56 143.078C543.502 143.023 543.487 142.992 543.486 142.991C543.486 142.991 543.486 142.991 543.486 142.991L541.67 143.827Z" fill="#D01B81"/>
<path fill-rule="evenodd" clip-rule="evenodd" d="M565.132 137.012L564.894 137.067C563.906 137.296 563.054 137.917 562.532 138.787L559.144 144.442C558.288 145.872 556.418 146.31 555.016 145.409C554.165 144.863 553.653 143.919 553.658 142.907L553.717 132.808C553.735 129.669 555.906 126.954 558.963 126.244L567.69 124.22L567.69 124.22L571.173 123.412C574.23 122.702 577.375 124.185 578.773 126.994L583.273 136.036C583.723 136.942 583.679 138.015 583.156 138.881C582.293 140.306 580.422 140.736 579.023 139.83L573.491 136.244C572.64 135.693 571.602 135.511 570.614 135.74L565.132 137.012L565.132 137.012Z" fill="#FFE456"/>
<path d="M556.917 134.795C554.219 134.983 554.175 132.254 554.175 130.372C548.451 130.372 548.498 139.107 550.693 141.695C552.889 144.282 560.131 143.577 562.092 142.557C564.052 141.538 564.963 137.461 563.082 135.501C561.2 133.54 560.288 134.559 556.917 134.795Z" fill="#FF78B9"/>
<path d="M577.066 130.45C579.523 129.461 578.394 127.038 577.588 125.38C582.632 122.929 586.331 130.646 585.504 133.866C584.677 137.086 577.993 139.564 575.829 139.506C573.666 139.447 571.117 136.244 571.936 133.712C572.755 131.179 573.994 131.686 577.066 130.45Z" fill="#FF78B9"/>
<path d="M562.955 132.032C561.91 132.181 559.745 134.122 557.132 134.794C557.904 135.69 559.73 138.318 561.761 136.885C565.178 134.473 564 131.883 562.955 132.032Z" fill="#FF78B9"/>
<path d="M570.169 131.72C571.111 131.294 573.921 131.761 576.434 130.943C576.267 132.089 576.138 135.222 573.706 135.104C569.614 134.906 569.227 132.146 570.169 131.72Z" fill="#FF78B9"/>
<path d="M563.28 135.315C562.252 135.558 560.273 137.688 557.732 138.594C558.582 139.416 560.64 141.867 562.531 140.255C565.715 137.543 564.307 135.071 563.28 135.315Z" fill="#FF78B9"/>
<path d="M571.625 134.604C572.603 134.266 575.358 134.986 577.935 134.4C577.665 135.527 577.252 138.634 574.841 138.296C570.783 137.726 570.648 134.943 571.625 134.604Z" fill="#FF78B9"/>
<path d="M570.143 125.28L561.105 127.372C561.468 127.874 562.963 128.711 566.043 128.041C569.122 127.372 570.059 125.921 570.143 125.28Z" fill="#1217A4"/>
<rect x="557.262" y="128.119" width="2.75418" height="4.36167" rx="0.564847" transform="rotate(-14.1823 557.262 128.119)" fill="white"/>
<rect x="571.217" y="124.966" width="2.75418" height="4.36167" rx="0.564847" transform="rotate(-12.8618 571.217 124.966)" fill="white"/>
<path d="M540.582 52.711C545.232 54.6347 551.691 62.5729 555.492 69.3753C556.067 70.4033 557.911 70.1086 558.061 68.9407C558.58 64.9065 559.002 60.1452 557.628 55.5396C555.392 48.0515 558.805 44.5993 563.784 49.5951C568.764 54.5909 567.801 74.2943 568.413 75.1088C569.026 75.9232 573.868 78.7624 577.451 84.0392C583.831 93.4375 583.575 109.112 566.603 110.242C547.844 111.49 540.376 105.723 539.632 95.4144C539.029 87.0554 545.632 78.5839 545.202 75.7109C544.773 72.838 537.847 62.3078 535.054 58.2868C532.262 54.2659 534.955 50.383 540.582 52.711Z" fill="#FF78B9"/>
<path d="M550.691 76.9307C549.788 77.5556 548.878 79.1061 548.35 80.4034C548.142 80.9144 548.651 81.1492 549.031 80.749C550.018 79.7091 551.428 78.5153 552.687 78.3576C555.396 78.0182 556.359 77.6269 555.948 76.2575C555.508 74.7895 552.59 75.6177 550.691 76.9307Z" fill="black"/>
<path d="M564.146 76.1453C564.298 74.885 568.465 74.6639 570.988 75.0306C571.484 75.1025 571.525 75.6765 571.062 75.8657C570.219 76.2097 569.057 76.6429 567.946 76.9217C565.571 77.518 563.983 77.5005 564.146 76.1453Z" fill="black"/>
<path d="M549.278 84.0104L549.521 84.9105L549.278 84.0104C547.713 84.432 546.496 86.0829 547.179 87.8433C548.151 90.3497 550.438 93.6365 554.712 93.2229C557.468 92.9562 559.27 91.22 560.367 89.3399C561.278 87.7783 561.754 86.0421 561.933 84.7278L564.675 83.9327C565.07 85.0426 565.789 86.3155 566.928 87.3472C568.491 88.7617 570.783 89.6633 573.905 89.1474C575.245 88.9259 576.31 88.4096 577.109 87.6513C577.904 86.8963 578.38 85.9555 578.635 84.9728C579.137 83.0409 578.816 80.8471 578.308 79.14C577.816 77.4846 576.086 76.7868 574.601 77.187L549.278 84.0104Z" fill="black" stroke="black" stroke-width="2"/>
<path fill-rule="evenodd" clip-rule="evenodd" d="M552.833 93.1597L554.655 83.5973L552.044 84.3009L550.529 92.2526C551.197 92.6841 551.962 93.0066 552.833 93.1597ZM552.252 83.2091L552.044 84.3008L554.655 83.5973L554.863 82.5056L552.252 83.2091Z" fill="#8CD9FF"/>
<path fill-rule="evenodd" clip-rule="evenodd" d="M569.248 88.7749C568.391 88.4467 567.652 87.9816 567.026 87.4345L568.466 79.8757L571.078 79.1721L569.248 88.7749ZM571.286 78.0804L568.674 78.784L568.466 79.8757L571.078 79.1721L571.286 78.0804Z" fill="#8CD9FF"/>
<path fill-rule="evenodd" clip-rule="evenodd" d="M556.587 92.7747L558.535 82.5519L556.181 83.1861L554.263 93.2533C554.41 93.2477 554.56 93.2377 554.712 93.223C555.394 93.1569 556.018 93.0008 556.587 92.7747ZM556.389 82.0944L556.181 83.1861L558.535 82.5519L558.743 81.4602L556.389 82.0944Z" fill="#8CD9FF"/>
<path fill-rule="evenodd" clip-rule="evenodd" d="M572.834 89.2722C572.037 89.325 571.301 89.2807 570.623 89.1575L572.604 78.7608L574.861 78.1526C574.893 78.144 574.925 78.1361 574.957 78.129L572.834 89.2722ZM575.155 77.0891C574.969 77.1054 574.783 77.138 574.601 77.187L572.812 77.6691L572.604 78.7608L574.861 78.1525C574.893 78.1439 574.925 78.1361 574.957 78.1289L575.155 77.0891Z" fill="#8CD9FF"/>
<path d="M538.24 55.3191C541.157 57.0496 547.704 63.8333 551.145 72.9706" stroke="#EA479D" stroke-width="2" stroke-linecap="round"/>
<path d="M560.952 51.1542C562.492 54.1763 564.397 63.409 562.42 72.9706" stroke="#EA479D" stroke-width="2" stroke-linecap="round"/>
<path d="M552.858 95.9359C552.527 95.4941 551.9 95.4045 551.458 95.7359C551.016 96.0672 550.927 96.694 551.258 97.1359L552.858 95.9359ZM563.925 97.5359C564.477 97.5359 564.925 97.0882 564.925 96.5359C564.925 95.9836 564.477 95.5359 563.925 95.5359V97.5359ZM551.258 97.1359C552.037 98.1737 552.914 98.7848 553.946 99.0141C554.929 99.2326 555.932 99.0734 556.89 98.8434C558.879 98.3658 560.967 97.5359 563.925 97.5359V95.5359C560.652 95.5359 558.142 96.4861 556.423 96.8986C555.527 97.1136 554.898 97.1769 554.38 97.0617C553.91 96.9572 553.415 96.6782 552.858 95.9359L551.258 97.1359Z" fill="black"/>
<rect x="724.385" y="136.583" width="53.0337" height="62.7109" fill="#080D86"/>
<rect x="740.704" y="136.583" width="53.0337" height="62.7109" fill="#1217A4"/>
<path d="M740.892 199.133H750.902L747.422 214.638H744.372L740.892 199.133Z" fill="#1217A4"/>
<path d="M724.385 199.133H734.396L730.916 214.638H727.865L724.385 199.133Z" fill="#1217A4"/>
<path d="M783.727 199.133H793.738L790.258 214.638H787.207L783.727 199.133Z" fill="#1217A4"/>
<path d="M767.221 199.133H777.231L773.751 214.638H770.701L767.221 199.133Z" fill="#1217A4"/>
<rect x="737.09" y="131.156" width="60.2613" height="5.42665" fill="#1217A4"/>
<rect x="720.771" y="131.156" width="60.2613" height="5.42665" fill="#1217A4"/>
<path opacity="0.48" d="M467.644 218.807H840.554V371.767H322.979L467.644 218.807Z" fill="#5865F2"/>
<rect x="265.351" y="345.46" width="72.3005" height="9.17202" fill="#0C1AAD"/>
<rect x="248.711" y="362.648" width="72.3005" height="9.17202" fill="#0C1AAD"/>
<rect x="281.687" y="328.272" width="72.3005" height="9.17202" fill="#0C1AAD"/>
<rect x="298.023" y="311.085" width="72.3005" height="9.17202" fill="#0C1AAD"/>
<rect x="379.704" y="225.147" width="72.3005" height="9.17202" fill="#0C1AAD"/>
<rect x="363.368" y="242.334" width="72.3005" height="9.17202" fill="#0C1AAD"/>
<rect x="347.032" y="259.522" width="72.3005" height="9.17202" fill="#0C1AAD"/>
<rect x="330.696" y="276.709" width="72.3005" height="9.17202" fill="#0C1AAD"/>
<rect x="314.36" y="293.897" width="72.3005" height="9.17202" fill="#0C1AAD"/>
<rect x="391.609" y="213.625" width="448.945" height="5.23491" fill="#0C1AAD"/>
<path d="M422.143 309.023C422.143 275.182 449.576 247.748 483.417 247.748C517.259 247.748 544.692 275.181 544.692 309.023V371.504H422.143V309.023Z" fill="black"/>
<path d="M421.579 371.659V343.416L447.844 317.01L481.17 371.659H421.579Z" fill="#57F287"/>
<path d="M430.685 290.587C438.748 295.747 450.796 302.069 466.093 307.062C467.498 307.52 468.129 309.166 467.468 310.487C460.866 323.679 464.024 335.621 467.431 341.766C468.109 342.991 467.743 344.597 466.506 345.252L431.459 363.813C429.543 364.828 427.244 362.762 427.656 360.633C429.673 350.218 423.582 344.093 417.918 341.15C416.343 340.332 415.859 338.071 416.899 336.632C422.278 329.192 419.673 320.287 415.59 315.135C414.291 313.496 414.691 309.937 416.377 308.7C421.043 305.277 422.803 300.141 423.065 295.224C423.199 292.699 428.556 289.224 430.685 290.587Z" fill="#29CC7A"/>
<path d="M421.84 337.973L451.629 333.209" stroke="#57F287" stroke-width="2" stroke-linecap="round"/>
<path d="M429.698 362.466L460.695 342.276" stroke="#57F287" stroke-width="2" stroke-linecap="round"/>
<path d="M417.955 313.125L450.658 318.314" stroke="#57F287" stroke-width="2" stroke-linecap="round"/>
<path d="M435.216 338.828C445.494 342.323 449.123 327.302 447.89 320.93L455.261 348.557L435.216 338.828Z" fill="black"/>
<path d="M428.656 294.963L455.191 308.924" stroke="#57F287" stroke-width="2" stroke-linecap="round"/>
<path d="M437.253 371.951C444.949 369.436 453.916 357.715 451.657 344.088L475.513 371.951L437.253 371.951Z" fill="black"/>
<path d="M515.279 262.489C510.971 271.036 503.826 282.616 493.207 294.705C492.232 295.816 492.527 297.554 493.769 298.354C506.172 306.341 509.539 318.225 509.739 325.249C509.778 326.648 510.912 327.844 512.31 327.777L551.924 325.891C554.09 325.788 555.015 322.838 553.576 321.217C546.533 313.283 548.654 304.909 552.028 299.491C552.967 297.984 552.231 295.792 550.603 295.084C542.184 291.423 539.888 282.433 540.776 275.92C541.059 273.848 538.901 270.989 536.82 270.784C531.061 270.216 526.93 266.693 524.199 262.596C522.797 260.492 516.417 260.231 515.279 262.489Z" fill="#29CC7A"/>
<path d="M547.034 298.756L518.974 309.835" stroke="#57F287" stroke-width="2" stroke-linecap="round"/>
<path d="M552.753 323.835L515.793 322.256" stroke="#57F287" stroke-width="2" stroke-linecap="round"/>
<path d="M537.717 275.396L512.221 296.524" stroke="#57F287" stroke-width="2" stroke-linecap="round"/>
<path d="M518.884 263.643L503.536 290.753" stroke="#57F287" stroke-width="2" stroke-linecap="round"/>
<path d="M543.814 326.361C525.729 323.146 520.958 303.016 506.737 284.719L517.432 326.93L543.814 326.361Z" fill="black"/>
<path d="M539.52 285.636C526.559 285.227 519.875 280.227 513.751 277.42L528.242 296.511L539.52 285.636Z" fill="black"/>
<path d="M564.321 303.128C547.996 298.775 553.438 285.715 537.113 285.171C532.269 285.009 528.958 286.812 526.37 289.911C522.877 285.066 512.843 274.287 500.654 269.934C485.417 264.493 443.517 274.287 447.87 321.63C452.224 368.972 469.324 375.123 504.526 375.123C534.534 375.123 587.508 376.885 597.497 365.265C613.507 346.641 600.78 310.202 589.896 303.128C579.013 296.054 580.646 307.481 564.321 303.128Z" fill="#57F287"/>
<path d="M567.249 332.667C575.411 337.565 587.728 329.528 593.913 340.285C597.813 347.068 593.234 352.898 586.704 356.707C580.174 360.516 550.38 364.001 531.879 359.647C513.377 355.294 516.281 327.383 529.341 319.22C542.401 311.058 559.087 327.77 567.249 332.667Z" fill="black"/>
<ellipse cx="541.467" cy="305.032" rx="4.89745" ry="7.34618" transform="rotate(10.1295 541.467 305.032)" fill="black"/>
<path fill-rule="evenodd" clip-rule="evenodd" d="M542.811 311.684C544.542 310.707 545.993 308.483 546.487 305.718C547.21 301.674 545.61 298.005 542.913 297.523C540.981 297.178 539.01 298.563 537.783 300.865C538.584 300.413 539.444 300.228 540.297 300.38C542.993 300.862 544.593 304.531 543.871 308.575C543.666 309.721 543.297 310.774 542.811 311.684Z" fill="#29CC7A"/>
<ellipse cx="582.278" cy="319.496" rx="4.89745" ry="7.34618" transform="rotate(10.1295 582.278 319.496)" fill="black"/>
<path fill-rule="evenodd" clip-rule="evenodd" d="M583.97 325.924C585.478 324.836 586.706 322.784 587.152 320.29C587.871 316.263 586.278 312.61 583.594 312.13C581.424 311.743 579.205 313.547 578.054 316.38C578.981 315.712 580.014 315.409 581.035 315.591C583.72 316.071 585.313 319.724 584.594 323.751C584.456 324.522 584.243 325.252 583.97 325.924Z" fill="#29CC7A"/>
<ellipse cx="470.914" cy="330.714" rx="11.4274" ry="5.96424" fill="#29CC7A"/>
<ellipse cx="468.859" cy="344.417" rx="5.09162" ry="3.5943" fill="#29CC7A"/>
<ellipse cx="478.744" cy="340.822" rx="2.10242" ry="1.48415" fill="#29CC7A"/>
<path d="M505.031 324.749C524.472 314.784 519.708 294.681 528.04 287.166" stroke="black" stroke-width="2" stroke-linecap="round"/>
<path fill-rule="evenodd" clip-rule="evenodd" d="M584.75 357.772C576.909 351.891 566.798 344.541 556.342 347.809C550.865 349.52 548.526 348.094 545.662 346.347C543.059 344.76 540.021 342.907 533.797 342.907C523.342 342.907 521.373 348.793 521.482 351.843C523.724 358.351 533.897 362.185 551.441 362.185C568.353 362.185 576.872 359.868 581.91 358.498C583.004 358.2 583.934 357.947 584.75 357.772Z" fill="#EA479D"/>
<path fill-rule="evenodd" clip-rule="evenodd" d="M525.939 321.936C529.481 337.398 530.272 348.707 526.629 357.545C526.142 358.726 527.56 359.987 528.492 359.114C536.504 351.601 546.365 337.34 544.938 318.603C539.656 316.598 534.242 316.156 529.34 319.22C528.258 319.897 527.115 320.816 525.939 321.936Z" fill="white"/>
<path fill-rule="evenodd" clip-rule="evenodd" d="M543.83 327.806C544.309 330.556 547.047 335.086 554.168 331.196C554.654 333.537 557.299 337.482 563.998 334.535C565.073 337.14 569.018 341.03 576.195 335.75C576.676 335.396 577.136 334.933 577.568 334.396C573.906 334.521 570.288 334.492 567.247 332.667C565.617 331.689 563.646 330.239 561.432 328.61C555.767 324.442 548.51 319.103 541.282 317.491L543.83 327.806Z" fill="white"/>
<path d="M545.396 345.315C553.63 349.758 555.58 353.919 555.525 355.444" stroke="black" stroke-width="2" stroke-linecap="round"/>
<path fill-rule="evenodd" clip-rule="evenodd" d="M571.289 334.128C577.208 347.863 579.727 356.993 580.081 368.344C580.113 369.381 581.291 369.798 581.826 368.91C585.238 363.249 589.06 351.124 588.492 335.329C585.496 334.095 582.053 334.227 578.605 334.358C576.113 334.453 573.619 334.548 571.289 334.128Z" fill="white"/>
<path d="M483.307 303.976C481.614 309.977 475.084 309.767 470.61 307.259C469.944 306.885 468.242 306.067 468.242 307.443C468.242 309.27 472.792 314.095 479.578 313.212C483.22 312.738 484.705 309.57 485.286 306.748C486.092 302.831 484.472 299.843 483.307 303.976Z" fill="black"/>
<path d="M501.185 298.164C508.989 299.253 512.526 295.737 512.05 292.034C511.846 290.45 510.691 287.608 512.285 287.716C512.423 287.725 512.579 287.785 512.754 287.91C514.241 288.97 518.1 293.809 513.441 298.821C510.941 301.511 504.929 302.549 502.294 301.384C498.636 299.767 496.933 297.57 501.185 298.164Z" fill="black"/>
<path d="M538.02 357.866C540.961 353.591 556.318 355.477 555.338 359.627C555.338 362.645 550.927 364.28 546.842 365.663C542.758 367.047 548.313 371.323 555.338 373.586C562.362 375.85 556.808 379.874 548.313 379.246C539.818 378.617 532.956 378.617 514.659 379.12C496.361 379.623 485.252 374.718 496.525 373.586C505.543 372.681 518.797 371.951 524.297 371.7C535.555 371.185 539.487 368.176 539.487 365.663C539.487 362.358 535.08 362.142 538.02 357.866Z" fill="url(#paint4_linear_464_979)"/>
<path d="M430.744 267.569C450.526 263.823 469.55 267.974 471.521 281.225C470.776 291.319 463.942 294.966 458.163 295.912C454.617 296.492 451.468 294.28 448.879 291.79C438.745 282.044 426.239 284.433 412.699 279.178C399.773 274.163 397.289 263.046 397.342 251.211C397.348 249.829 400.319 249.552 400.851 250.828C406.061 263.32 417.046 270.163 430.744 267.569Z" fill="url(#paint5_linear_464_979)"/>
<path d="M474.281 240.593C494.014 244.588 510.821 258.354 507.647 271.368C502.976 280.783 492.643 278.431 485.818 275.542C482.575 274.169 481.099 270.669 480.245 267.253C477.498 256.261 463.49 254.268 453.189 244.536C445.501 237.271 446.418 226.245 448.972 217.104C449.353 215.738 452.314 216.303 452.584 217.695C454.632 228.237 462.753 238.259 474.281 240.593Z" fill="url(#paint6_linear_464_979)"/>
<path fill-rule="evenodd" clip-rule="evenodd" d="M479.595 265.277C479.894 266 480.139 266.765 480.322 267.579C495.475 271.936 504.053 268.906 507.732 265.23C507.573 264.459 507.353 263.69 507.075 262.927C504.723 266.121 496.791 270.59 479.595 265.277ZM477.209 261.417C490.44 262.137 497.465 257.937 500.596 253.559C500.114 253.097 499.611 252.641 499.09 252.193C496.348 256.191 489.545 260.617 475.036 259.251C475.827 259.932 476.556 260.649 477.209 261.417ZM472.537 257.336C475.586 256.194 478.247 254.114 480.456 251.756C482.685 249.375 484.508 246.655 485.866 244.176C485.251 243.916 484.628 243.664 483.998 243.422C482.723 245.715 481.036 248.21 478.996 250.389C476.527 253.025 473.619 255.121 470.361 255.917C471.112 256.382 471.839 256.852 472.537 257.336ZM464.051 252.238C468.678 249.976 471.27 246.807 472.548 243.55C472.964 242.49 473.237 241.429 473.398 240.398C472.739 240.24 472.092 240.056 471.457 239.849C471.324 240.818 471.079 241.82 470.686 242.819C469.507 245.827 466.964 248.905 461.948 250.995C462.651 251.421 463.354 251.834 464.051 252.238ZM453.838 245.134C456.895 244.218 459.359 242.41 461.277 240.295C462.46 238.989 463.441 237.563 464.235 236.144C463.687 235.746 463.156 235.329 462.64 234.893C461.889 236.279 460.945 237.683 459.795 238.951C457.853 241.094 455.344 242.836 452.173 243.493C452.494 243.851 452.832 244.198 453.19 244.536C453.404 244.739 453.62 244.938 453.838 245.134ZM447.171 229.695C450.802 229.662 453.605 228.628 455.7 227.138C455.81 227.06 455.918 226.98 456.024 226.9C455.687 226.31 455.37 225.711 455.074 225.103C454.903 225.241 454.726 225.377 454.541 225.508C452.814 226.737 450.415 227.664 447.159 227.695C447.143 228.365 447.147 229.032 447.171 229.695ZM449.674 292.586C453.27 291.37 458.074 288.782 461.852 285.236C465.102 282.186 467.721 278.293 467.985 273.862C467.371 273.195 466.689 272.574 465.944 271.997C466.418 276.414 464.025 280.454 460.483 283.778C456.539 287.48 451.382 290.074 448.025 291.002C448.582 291.495 449.132 292.022 449.674 292.586ZM443.93 288.017C447.47 286.013 449.887 282.254 451.436 278.454C453.111 274.344 453.867 269.955 453.89 267.085C453.235 266.963 452.568 266.855 451.89 266.76C451.926 269.302 451.244 273.626 449.584 277.699C447.902 281.824 445.325 285.437 441.741 286.852C442.48 287.204 443.209 287.591 443.93 288.017ZM436.104 284.775C438.65 282.423 439.857 279.155 440.287 275.996C440.779 272.387 440.286 268.761 439.499 266.423C438.879 266.467 438.255 266.52 437.629 266.58L437.454 266.648C438.217 268.621 438.79 272.174 438.306 275.726C437.852 279.056 436.496 282.223 433.68 284.156C434.496 284.346 435.304 284.55 436.104 284.775ZM426.517 282.742C428.236 280.537 429.081 277.829 429.437 275.266C429.826 272.464 429.645 269.735 429.308 267.798C428.64 267.885 427.973 267.945 427.309 267.978C427.632 269.736 427.825 272.335 427.456 274.991C427.078 277.713 426.128 280.384 424.24 282.314C425.004 282.462 425.763 282.603 426.517 282.742ZM414.499 279.836C415.377 278.638 416.116 277.24 416.734 275.783C417.952 272.914 418.746 269.707 419.194 267.093C418.543 266.918 417.9 266.72 417.266 266.499C416.848 269.037 416.078 272.209 414.893 275.002C414.222 276.583 413.434 278.003 412.531 279.113C412.586 279.135 412.642 279.157 412.698 279.178C413.3 279.412 413.901 279.631 414.499 279.836ZM400.282 266.89C402.519 266.076 404.208 264.538 405.467 262.746C406.027 261.95 406.497 261.109 406.887 260.267C407.395 260.732 407.92 261.18 408.46 261.611C408.073 262.386 407.623 263.157 407.104 263.896C405.687 265.912 403.734 267.716 401.134 268.708C400.828 268.114 400.544 267.507 400.282 266.89Z" fill="#D01B81"/>
<path d="M477.293 137.812C477.293 136.252 478.557 134.987 480.117 134.987H538.834V199.184H480.117C478.557 199.184 477.293 197.92 477.293 196.36V137.812Z" fill="#5865F2"/>
<path d="M524.869 137.812C524.869 136.252 526.134 134.987 527.693 134.987H541.533C543.093 134.987 544.357 136.252 544.357 137.812V196.36C544.357 197.92 543.093 199.184 541.533 199.184H537.296C530.433 199.184 524.869 193.621 524.869 186.758V137.812Z" fill="#7F8AFF"/>
<path d="M283.819 208.995C278.331 210.932 276.006 210.028 273.875 206.993C271.499 200.95 276.587 194.79 279.428 192.465C282.14 197.157 288.21 207.445 283.819 208.995Z" fill="black"/>
<path d="M325.546 210.307C316.829 208.886 323.65 192.821 329.72 193.725C333.013 194.242 335.402 196.695 335.144 199.666C334.885 202.636 331.809 211.017 325.546 210.307Z" fill="black"/>
<path d="M336.926 231.057C342.788 231.715 342.357 235.861 342.258 241.42L333.261 240.723C332.528 237.281 332.236 230.53 336.926 231.057Z" fill="#FF8C19"/>
<path d="M333.707 229.992C329.715 229.898 327.093 230.897 326.456 231.726L332.56 238.292C334.606 235.565 337.699 230.087 333.707 229.992Z" fill="black"/>
<path d="M324.046 248.439C321.793 245.025 323.268 240.106 328.57 241.022C336.163 242.335 345.487 247.701 346.677 248.589C350.33 251.316 347.488 256.439 341.25 256.677C333.138 256.986 326.298 251.852 324.046 248.439Z" fill="white"/>
<path d="M330.008 203.172C326.405 200.882 319.01 198.885 316.021 198.243C313.538 193.806 317.496 191.461 319.527 190.772C322.996 193.397 331.006 198.593 335.29 198.373C340.644 198.099 341.536 203.54 338.86 206.443C337.19 208.255 336.312 223.91 336.758 230.98L331.584 230.185C332.56 222.135 333.611 205.461 330.008 203.172Z" fill="#9EDFFD"/>
<path d="M337.007 216.81C335.326 218.961 332.669 217.742 332.601 216.377L332.499 213.637C328.045 215.606 330.749 219.497 330.848 221.028C331.014 223.609 330.284 231.868 329.821 235.594L336.936 236.354C336.882 231.796 337.012 223.212 338.94 220.049C340.867 216.885 338.537 214.477 337.241 213.766L337.007 216.81Z" fill="white"/>
<path d="M337.603 232.458C340.512 231.791 340.64 235.633 340.582 240.905L333.898 244.405C333.657 243.036 333.269 239.64 333.65 237.006C334.127 233.714 334.693 233.125 337.603 232.458Z" fill="#9EDFFD"/>
<path d="M334.304 242.112C334.996 240.095 335.629 235.715 332.62 234.334C328.944 232.647 325.512 231.377 330.376 230.349L330.474 230.046C324.258 228.864 322.306 240.437 323.827 244.03C325.374 247.682 328.445 252.928 336.769 254.786C345.094 256.645 350.092 252.774 348.043 246.86C346.491 242.381 341.618 239.327 340.216 239.992L334.304 242.112Z" fill="#FF8C19"/>
<path d="M338.283 239.803C339.41 238.105 342.31 234.788 344.895 235.111C348.126 235.515 345.397 239.72 338.283 239.803Z" stroke="white" stroke-width="2"/>
<path d="M338.345 239.809C336.707 238.595 332.851 236.464 330.531 237.648C327.63 239.128 331.628 242.152 338.345 239.809Z" stroke="white" stroke-width="2"/>
<path d="M332.118 242.978C336.467 240.775 340.52 239.677 342.479 240.083C342.479 240.083 343.449 241.14 344.296 241.581C344.296 241.581 338.878 241.107 332.118 242.978Z" fill="black"/>
<path d="M325.587 210.319C318.097 206.768 323.65 192.821 329.72 193.725C333.013 194.242 334.688 196.299 335.134 198.972C335.134 197.676 334.955 195.694 332.218 192.491C329.48 189.289 318.913 182.721 308.323 180.397C298.121 179.235 290.502 186.44 293.989 195.506C295.312 198.945 318.743 209.738 325.587 210.319Z" fill="#1217A4"/>
<path d="M275.102 190.722C275.403 195.026 276.91 204.772 280.526 209.318L307.516 180.907L303.125 176.258L275.102 190.722Z" fill="#1217A4"/>
<path d="M204.082 167.083C199.143 167.716 194.825 170.132 193.116 171.645C191.317 173.238 191.767 174.273 192.217 174.591C190.823 175.038 188.163 176.753 188.681 180.044C187.901 180.448 186.47 181.702 186.985 183.489C187.422 185.007 189.04 184.16 191.396 182.926C192.507 182.345 193.782 181.677 195.175 181.131C199.744 179.34 203.932 181.01 201.291 185.106C198.694 189.134 202.713 190.259 204.873 188.427C206.122 187.368 209.117 183.876 211.09 181.127C211.502 180.552 211.786 179.922 211.952 179.264C212.25 178.083 212.866 176.918 213.987 176.442L223.787 172.278L220.859 165.387L211.973 169.162C210.681 169.711 209.223 169.158 208.128 168.279C207.003 167.374 205.605 166.888 204.082 167.083Z" fill="#9EDFFD"/>
<path d="M188.361 179.876C194.559 176.398 198.738 175.523 199.396 175.336" stroke="black" stroke-width="2" stroke-linecap="round"/>
<path d="M192.013 174.348C195.743 171.832 198.674 171.455 199.35 171.345" stroke="black" stroke-width="2" stroke-linecap="round"/>
<path d="M368.876 135.531C373.843 135.182 379.009 134.383 380.981 135.531C383.058 136.739 381.687 138.413 378.015 138.908C383.734 140.249 386.384 141.886 386.523 145.215C387.366 145.458 389.016 146.407 388.862 148.26C388.732 149.834 386.979 149.321 384.426 148.574C383.222 148.222 381.841 147.818 380.368 147.556C375.536 146.697 371.758 149.157 375.152 152.655C378.489 156.094 374.769 157.986 372.291 156.615C370.858 155.822 367.236 152.985 364.762 150.677C364.245 150.194 363.843 149.632 363.551 149.019C363.027 147.92 362.194 146.899 361.002 146.652L350.575 144.493L352.093 137.161L361.547 139.119C362.922 139.403 364.243 138.575 365.143 137.497C366.069 136.389 367.344 135.638 368.876 135.531Z" fill="#9EDFFD"/>
<path d="M386.803 144.987C380.043 142.794 375.773 142.757 375.091 142.703" stroke="black" stroke-width="2" stroke-linecap="round"/>
<path d="M379.428 138.78C377.733 138.414 375.037 138.756 374.353 138.78" stroke="black" stroke-width="2" stroke-linecap="round"/>
<path d="M305.211 226.99C296.494 225.57 303.315 209.505 309.385 210.409C312.678 210.925 315.067 213.379 314.809 216.349C314.55 219.319 311.474 227.701 305.211 226.99Z" fill="black"/>
<path d="M309.099 247.897C315.207 248.79 314.611 253.111 314.313 258.921L304.927 257.878C304.281 254.253 304.212 247.181 309.099 247.897Z" fill="#FF8C19"/>
<path d="M305.769 246.671C301.598 246.432 298.82 247.386 298.125 248.23L304.28 255.312C306.514 252.531 309.941 246.909 305.769 246.671Z" fill="black"/>
<path d="M295.02 265.625C292.783 261.976 294.499 256.883 300.011 258.027C307.907 259.666 318.165 263.761 319.378 264.731C323.103 267.711 319.9 272.18 313.419 273C306.938 273.819 296.849 268.608 295.02 265.625Z" fill="white"/>
<path d="M309.099 217.803C306 214.585 298.973 210.728 296.092 209.338C294.662 204.213 299.266 202.805 301.501 202.607C304.381 206.132 311.244 213.393 315.654 214.227C321.166 215.27 320.731 221.023 317.293 223.315C315.147 224.745 310.39 240.448 309.099 247.748L304.033 245.662C307.013 237.716 312.198 221.021 309.099 217.803Z" fill="#9EDFFD"/>
<path d="M312.85 233.399C310.609 235.171 308.208 233.276 308.475 231.872L309.048 229.06C304.032 229.962 305.822 234.587 305.545 236.169C305.076 238.834 302.295 247.052 300.905 250.727L307.952 253.256C309.023 248.608 311.274 239.911 314.015 237.17C316.756 234.429 314.981 231.404 313.839 230.361L312.85 233.399Z" fill="white"/>
<path d="M309.757 249.386C312.823 248.79 312.823 252.813 312.578 258.325L305.465 261.752C305.261 260.312 304.974 256.746 305.465 254.005C306.078 250.578 306.691 249.982 309.757 249.386Z" fill="#9EDFFD"/>
<path d="M305.97 259.368C306.764 257.283 307.579 252.724 304.48 251.175C300.695 249.282 297.15 247.833 302.273 246.929L302.386 246.615C295.926 245.161 293.48 257.197 294.945 261.007C296.435 264.881 299.862 268.158 308.503 270.393C317.143 272.628 322.507 268.754 320.57 262.497C319.103 257.759 313.717 256.712 312.227 257.357L305.97 259.368Z" fill="#FF8C19"/>
<path d="M310.336 257.027C311.37 255.161 314.119 251.46 316.842 251.581C320.246 251.732 317.75 256.346 310.336 257.027Z" stroke="white" stroke-width="2"/>
<path d="M310.402 257.027C308.592 255.898 304.392 253.997 302.07 255.425C299.168 257.211 303.591 260.032 310.402 257.027Z" stroke="white" stroke-width="2"/>
<path d="M305.252 227.003C297.762 223.451 303.315 209.504 309.385 210.408C312.678 210.925 313.147 212.296 314.389 213.92C314.389 212.624 314.62 212.377 311.883 209.175C309.145 205.972 303.122 198.721 298.408 194.202C292.08 191.619 281.29 195.852 279.166 206.663C278.456 210.279 298.408 226.422 305.252 227.003Z" fill="#1217A4"/>
<path d="M274.069 204.893C274.069 201.12 279.062 195.626 286.466 190.969C294.171 186.123 305.074 179.94 317.53 183.238C319.346 180.729 318.629 173.826 311.484 169.91C307.097 167.505 306.869 156.261 306.352 151.837C326.406 148.546 338.842 148.053 355.376 147.603C360.154 147.473 361.703 134.19 357.984 133.412C313.887 124.195 280.571 136.795 270.582 139.437C256.397 143.188 227.115 158.088 215.467 164.142C212.672 165.594 212.907 178.109 220.712 177.646C233.556 176.886 256.329 168.066 265.933 161.689C264.383 173.271 267.741 192.661 267.612 200.078C267.509 206.012 273.337 208.711 276.264 209.318C275.532 209.101 274.069 207.912 274.069 204.893Z" fill="#FFE456"/>
<path d="M278.301 174.19C285.786 172.118 291.199 158.529 292.465 152.54L265.168 158.992C265.168 158.992 265.311 167.259 265.518 173.154C267.283 174.19 272.312 175.849 278.301 174.19Z" fill="black"/>
<path d="M252.071 152.943C254.924 150.428 258.183 147.851 259.619 144.868L293.169 152.562C292.486 159.855 283.129 168.096 277.718 169.487C273.385 170.601 260.94 167.301 252.759 162.08C249.383 159.925 249.067 155.591 252.071 152.943Z" fill="#29CC7A"/>
<path d="M278.174 116.613C265.954 119.291 256.978 128.008 259.485 144.418C259.485 144.418 259.394 145.785 262.676 149.432C266.778 153.99 278.858 156.725 289.341 153.99C299.825 151.255 305.751 143.25 305.751 132.566C303.244 124.818 294.811 112.966 278.174 116.613Z" fill="#57F287"/>
<path fill-rule="evenodd" clip-rule="evenodd" d="M301.534 146.184C299.015 135.472 294.537 129.338 289.974 125.878C285.054 122.148 280.155 121.618 277.804 121.669L277.847 123.668C279.875 123.625 284.295 124.083 288.766 127.472C293.074 130.739 297.542 136.813 299.907 148.082C300.491 147.483 301.034 146.849 301.534 146.184Z" fill="#29CC7A"/>
<path fill-rule="evenodd" clip-rule="evenodd" d="M264.755 123.663C267.794 122.725 270.538 122.949 272.724 123.128C273.389 123.182 274.002 123.233 274.557 123.244L274.6 121.245C274.191 121.236 273.688 121.194 273.107 121.145C271.699 121.027 269.833 120.87 267.758 121.058C266.673 121.837 265.668 122.704 264.755 123.663Z" fill="#29CC7A"/>
<path fill-rule="evenodd" clip-rule="evenodd" d="M287.441 116.162C286.993 116.188 286.553 116.227 286.122 116.28C283.4 116.61 281.047 117.452 279.222 118.475C277.423 119.484 276.051 120.72 275.398 121.902L277.148 122.87C277.553 122.138 278.575 121.131 280.2 120.219C281.8 119.322 283.903 118.564 286.364 118.265C289.267 117.912 292.687 118.197 296.382 119.672C293.905 117.951 290.939 116.663 287.441 116.162Z" fill="#29CC7A"/>
<ellipse cx="276.862" cy="122.766" rx="4.38564" ry="2.27908" fill="white"/>
<path d="M267.804 138.492C265.069 137.466 262.904 138.834 263.246 143.392C263.246 146.127 264.499 147.95 267.12 147.722C269.741 147.494 270.539 139.518 267.804 138.492Z" fill="white"/>
<path d="M280.91 141.682C278.176 140.657 276.01 142.024 276.352 146.582C276.352 149.317 277.606 151.141 280.227 150.913C282.848 150.685 283.645 142.708 280.91 141.682Z" fill="white"/>
<ellipse cx="265.905" cy="144.645" rx="1.95502" ry="2.89614" fill="black"/>
<ellipse cx="278.817" cy="147.741" rx="1.95502" ry="2.89614" fill="black"/>
<path d="M286.388 138.565C285.945 138.458 285.786 137.422 284.573 135.897C282.445 133.222 279.466 134.49 279.466 134.49C278.317 134.692 277.533 133.368 278.978 132.487C280.423 131.606 283.467 131.993 285.137 133.57C286.806 135.148 286.831 138.673 286.388 138.565Z" fill="black"/>
<path d="M262.423 134.496C262.878 134.472 263.225 133.483 264.698 132.207C267.281 129.968 269.976 131.762 269.976 131.762C271.068 132.172 272.082 131.015 270.824 129.883C269.565 128.752 266.502 128.572 264.571 129.816C262.64 131.06 261.968 134.52 262.423 134.496Z" fill="black"/>
<path d="M272.647 157.978C270.596 155.3 267.481 156.641 267.633 159.175C268.117 167.237 276.35 167.266 281.08 164.018C286.982 159.965 282.782 155.238 280.567 157.978C278.402 160.656 274.511 160.412 272.647 157.978Z" fill="black"/>
<path fill-rule="evenodd" clip-rule="evenodd" d="M284.095 159.524C284.058 157.44 281.935 156.286 280.567 157.978C279.661 159.098 278.454 159.707 277.219 159.858C277.529 160.86 278.452 161.597 279.558 161.621C280.935 161.65 282.076 160.564 282.116 159.19C282.689 159.564 283.405 159.697 284.095 159.524ZM277.06 159.875C275.393 160.026 273.698 159.35 272.647 157.978C270.888 155.681 268.362 156.339 267.761 158.172C267.892 159.005 268.439 159.752 269.274 160.099C270.382 160.561 271.633 160.167 272.292 159.22C272.45 160.289 273.292 161.173 274.416 161.334C275.55 161.497 276.616 160.872 277.06 159.875Z" fill="white"/>
<path d="M296.981 153.006C295.69 158.811 288.806 158.574 286.002 158.149C284.023 157.849 281.555 158.89 281.05 160.708C277.562 161.434 278.065 164.091 279.232 165.027L280.658 164.63C285.6 167.497 295.975 163.511 298.745 160.642C304.816 154.354 298.745 145.07 296.981 153.006Z" fill="#FF78B9"/>
<path d="M281.009 160.514C283.174 161.437 290.726 162.526 295.27 159.454C296.433 158.668 298.213 157.035 298.67 155.466" stroke="black" stroke-width="2" stroke-linecap="round"/>
<path fill-rule="evenodd" clip-rule="evenodd" d="M308.946 169.226C306.978 168.73 304.934 168.753 302.681 169.218C302.223 169.312 301.775 169.017 301.68 168.559C301.586 168.101 301.881 167.652 302.339 167.558C304.785 167.054 307.094 167.012 309.36 167.582C312.98 168.493 314.887 172.458 314.887 172.458C312.857 170.748 310.914 169.721 308.946 169.226Z" fill="black"/>
<path d="M304.886 259.75C309.235 257.547 313.064 256.961 314.382 257.031L317.05 258.146L304.886 259.75Z" fill="black"/>
<path d="M716.725 164.195C719.186 164.534 721.68 164.568 724.132 164.927C731.086 165.946 728.065 169.894 724.611 170.561C724.015 170.676 723.242 170.83 722.366 171.003C718.166 171.836 711.572 173.144 710.47 173.02C709.444 172.904 707.882 171.101 708.138 168.686C708.298 167.176 708.58 165.605 708.04 164.187L705.44 157.358L713.836 155.737L715.134 162.46C715.297 163.301 715.919 163.966 716.725 164.195Z" fill="white"/>
<mask id="mask0_464_979" style="mask-type:alpha" maskUnits="userSpaceOnUse" x="705" y="155" width="24" height="19">
<path d="M716.725 164.195C719.186 164.534 721.68 164.568 724.132 164.927C731.086 165.946 728.065 169.894 724.611 170.561C724.015 170.676 723.242 170.83 722.366 171.003C718.166 171.836 711.572 173.144 710.47 173.02C709.444 172.904 707.882 171.101 708.137 168.686C708.297 167.176 708.58 165.605 708.04 164.187L705.44 157.358L713.836 155.737L715.134 162.46C715.296 163.301 715.919 163.966 716.725 164.195Z" fill="white"/>
</mask>
<g mask="url(#mask0_464_979)">
<path d="M723.679 170.637C723.213 169.412 723.351 166.868 725.48 164.855C728.568 164.258 730.141 167.959 728.477 169.711C726.813 171.463 724.144 171.863 723.679 170.637Z" fill="#8CD9FF"/>
<path d="M714.112 172.943C713.535 168.294 709.958 167.528 708.242 167.726C707.598 167.85 706.662 168.786 708.062 171.537C709.463 174.287 712.679 173.62 714.112 172.943Z" fill="#8CD9FF"/>
</g>
<path d="M708.159 164.793C709.829 164.584 713.57 163.895 714.683 160.483L706.639 160.55L708.159 164.793Z" fill="black"/>
<path d="M732.718 155.497C735.08 155.106 737.387 154.424 739.747 154.054C746.441 153.004 744.788 157.503 741.799 159.104C741.283 159.381 740.615 159.743 739.857 160.153C736.228 162.121 730.531 165.209 729.481 165.41C728.515 165.595 726.597 164.413 726.112 162.17C725.791 160.687 725.602 159.099 724.665 157.904L720.373 152.427L727.64 148.535L730.757 154.354C731.147 155.082 731.91 155.516 732.718 155.497Z" fill="white"/>
<mask id="mask1_464_979" style="mask-type:alpha" maskUnits="userSpaceOnUse" x="720" y="148" width="25" height="18">
<path d="M732.718 155.497C735.08 155.106 737.387 154.424 739.747 154.054C746.441 153.004 744.788 157.503 741.799 159.104C741.283 159.381 740.615 159.743 739.857 160.153C736.228 162.121 730.531 165.209 729.481 165.41C728.515 165.595 726.597 164.413 726.112 162.17C725.791 160.687 725.602 159.099 724.665 157.904L720.373 152.427L727.64 148.535L730.757 154.354C731.147 155.082 731.91 155.516 732.718 155.497Z" fill="white"/>
</mask>
<g mask="url(#mask1_464_979)">
<path d="M740.962 159.441C740.183 158.445 739.583 156.064 740.967 153.602C743.641 152.17 746.147 155.128 745.115 157.217C744.084 159.305 741.741 160.437 740.962 159.441Z" fill="#8CD9FF"/>
<path d="M732.812 164.298C730.952 160.183 727.44 160.5 725.916 161.172C725.359 161.471 724.764 162.6 726.84 164.732C728.916 166.864 731.687 165.331 732.812 164.298Z" fill="#8CD9FF"/>
</g>
<path d="M725.001 158.495C726.479 157.826 729.727 156.122 729.777 152.662L722.389 155.023L725.001 158.495Z" fill="black"/>
<path d="M694.853 134.645C689.874 132.209 685.343 128.891 688.204 124.971L700.812 123.932L718.222 130.51C719.906 131.146 721.298 132.379 722.133 133.974L730.775 150.484C731.294 153.302 723.274 157.526 721.578 155.972L716.792 147.625L712.005 139.278C709.216 139.067 698.837 136.595 694.853 134.645Z" fill="#EA479D"/>
<path d="M697.419 128.7L711.91 132.837C714.216 133.495 715.749 135.675 715.587 138.068L715.158 144.415L709.086 136.648L688.785 127.903L697.419 128.7Z" fill="black"/>
<path d="M683.087 139.795C677.45 139.795 675.158 132.118 677.45 126.157L689.242 124.971L709.113 133.505C711.466 134.515 713.122 136.678 713.484 139.213L716.238 158.494C715.793 162.573 706.794 163.26 704.669 161.312L699.996 139.795H683.087Z" fill="#EA479D"/>
<path d="M721.727 96.3729C721.727 98.7344 720.874 100.649 718.908 100.649C716.942 100.649 715.348 98.7344 715.348 96.3729C715.348 94.0113 716.887 92.3008 718.297 92.2081C720.263 92.2081 721.727 94.0113 721.727 96.3729Z" fill="black"/>
<path d="M697.919 93.4503C695.486 93.0538 691.764 91.6703 687.165 92.9312C687.165 95.1562 691.17 99.9027 693.469 100.644C695.309 101.238 711.195 100.892 718.908 100.644C718.241 100.521 716.802 99.8137 716.387 97.9744C715.971 96.1351 716.387 92.4862 718.315 92.1895C715.83 92.0041 707.932 95.082 697.919 93.4503Z" fill="white"/>
<path d="M723.284 91.5962L718.199 92.1098C716.478 92.6735 716.109 95.369 716.241 96.6697L723.655 96.1203L723.284 91.5962Z" fill="#57F287"/>
<path d="M722.114 95.6059L720.934 92.4548C720.744 91.9466 720.743 91.3868 720.932 90.8779L722.927 85.49C723.142 84.9098 723.839 84.6776 724.359 85.0129C724.66 85.2074 724.829 85.553 724.798 85.9106L724.663 87.4532C724.582 88.3683 725.57 88.9916 726.361 88.5255L729.702 86.5586C730.213 86.2575 730.873 86.4667 731.117 87.0075C731.305 87.4235 731.187 87.9139 730.83 88.1985L728.107 90.3707C727.865 90.5635 728.064 90.9486 728.361 90.8629L731.733 89.8897C732.233 89.7454 732.763 89.9892 732.979 90.4627C733.219 90.9898 732.987 91.6119 732.46 91.8527L729.009 93.4298C728.733 93.5559 728.823 93.9691 729.127 93.9691L731.835 93.9691C732.404 93.9691 732.842 94.4726 732.762 95.036C732.705 95.4415 732.391 95.7627 731.987 95.8291L724.596 97.0431C723.532 97.2179 722.492 96.616 722.114 95.6059Z" fill="#57F287"/>
<path d="M671.609 68.2843C676.376 63.1364 688.959 63.3273 693.535 71.7162C696.014 78.7705 695.442 90.5917 682.477 91.9264C669.512 93.261 666.271 80.2961 666.08 76.1015C665.927 72.7459 662.712 72.9239 661.123 73.4323C661.733 71.7545 663.665 70.8266 664.555 70.5724C663.487 69.6573 664.11 67.0134 664.555 65.8059C665.317 68.348 667.796 72.4027 671.609 68.2843Z" fill="#57F287"/>
<path d="M693.871 66.2804C689.117 67.5434 684.14 74.6095 682.037 78.3451C681.927 78.5416 681.948 78.7866 682.091 78.9609C687.819 85.938 697.583 85.3411 702.336 84.0327C702.654 83.9451 702.815 83.5978 702.669 83.302C701.314 80.5662 698.471 78.3553 696.881 77.3846C696.679 77.2613 696.568 77.0291 696.601 76.7948C697.352 71.4104 695.557 67.8018 694.377 66.4337C694.252 66.2886 694.057 66.2313 693.871 66.2804Z" fill="#FFE456"/>
<path d="M693.795 67.5468C689.975 68.6952 691.647 75.0553 686.628 78.0454C686.261 78.2639 686.202 78.7965 686.551 79.0416C691.196 82.2963 695.745 82.8996 699.477 81.9169C699.796 81.8328 699.96 81.483 699.813 81.1875C698.734 79.0185 697.118 78.3327 695.85 77.6691C695.641 77.5594 695.53 77.3264 695.563 77.0923C696.24 72.3639 695.265 68.9629 694.296 67.7016C694.18 67.5496 693.978 67.4916 693.795 67.5468Z" fill="black"/>
<ellipse cx="673.849" cy="76.6278" rx="3.96788" ry="5.15453" transform="rotate(-33.2471 673.849 76.6278)" fill="white"/>
<ellipse cx="676.254" cy="75.9181" rx="1.79354" ry="2.48336" transform="rotate(-31.2417 676.254 75.9181)" fill="black"/>
<path d="M673.148 97.5295L674.854 89.7421L685.831 88.9263L688.797 96.7137C683.383 99.6062 675.447 98.5431 673.148 97.5295Z" fill="#57F287"/>
<path d="M687.601 93.5731L686.626 91.0074C684.333 92.0027 681.645 92.1439 679.377 91.9262C680.453 93.0609 684.31 95.2859 687.601 93.5731Z" fill="black"/>
<path d="M695.917 107.097C694.285 100.051 690.948 95.8978 688.723 94.192C688.575 95.2056 687.165 97.5591 682.715 98.8645C678.266 100.17 674.73 96.5406 673.519 94.5628C672.802 95.527 671.605 97.9745 672.555 100.051C673.741 102.647 674.483 111.324 674.112 121.188C673.944 125.669 670.166 137.527 679.23 136.467C686.201 135.651 688.352 130.311 692.802 127.122C696.362 124.57 703.284 124.798 704.965 125.861C703.482 118.741 697.549 114.143 695.917 107.097Z" fill="#FFE456"/>
<path d="M687.595 95.6961C685.737 98.3008 678.27 99.1477 674.518 95.5066C674.004 95.0076 673.865 94.2568 674.021 93.5576C673.354 93.3104 672.395 94.2207 672.755 95.3028C673.563 97.7284 675.948 99.4949 681.214 99.7174C686.479 99.9399 689.391 96.7862 689.168 95.3028C688.99 94.1162 688.178 93.7707 687.634 93.6471C687.878 94.3297 688.015 95.1059 687.595 95.6961Z" fill="white"/>
<path d="M666.473 129.68C664.176 129.134 662.548 128.42 662.548 127.38C663.003 125.467 665.234 124.359 667.531 124.906C669.829 125.452 671.137 127.345 670.901 128.738C670.753 129.609 668.771 130.227 666.473 129.68Z" fill="black"/>
<path d="M660.997 133.157C662.631 131.96 663.884 129.397 664.179 127.093L666.802 109.599L671.928 110.118L669.088 127.103C668.766 130.192 667.306 135.582 670.092 137.122C672.071 138.216 671.472 139.372 670.347 139.372H665.123C662.631 139.372 664.4 145.079 662.631 145.347C661.529 145.514 661.051 144.954 660.997 144.543C660.997 144.775 660.18 145.266 659.363 145.065C658.666 144.894 658.211 144.088 658.211 143.257C655.854 143.123 656.706 138.705 657.113 137.484C657.595 136.037 659.135 134.522 660.997 133.157Z" fill="#57F287"/>
<path d="M674.408 108.627C678.492 98.8351 673.638 96.4612 673.445 93.7471C668.698 95.527 667.696 99.9172 666.918 102.35C666.33 104.191 664.096 119.82 662.552 127.381C662.826 126.76 664.031 126.655 665.917 126.677C667.802 126.698 670.218 127.381 670.914 128.76C671.67 126.386 670.503 117.99 674.408 108.627Z" fill="white"/>
<path d="M659.131 137.802C658.686 138.518 658.137 140.916 658.018 143.586" stroke="black" stroke-width="2" stroke-linecap="round"/>
<path d="M727.066 94.9923C727.066 93.8211 725.806 92.7087 723.21 93.3022" stroke="black" stroke-width="2" stroke-linecap="round"/>
<path d="M662.151 139.359C661.706 140.076 661.157 142.474 661.038 145.144" stroke="black" stroke-width="2" stroke-linecap="round"/>
<path d="M459.202 44.3757C459.202 71.4505 437.253 93.3989 410.178 93.3989C383.104 93.3989 361.155 71.4505 361.155 44.3757H459.202Z" fill="#1217A4"/>
<circle cx="410.055" cy="108.701" r="6.91278" fill="#1217A4"/>
<circle cx="410.055" cy="131.105" r="7.67529" fill="#1217A4"/>
<path d="M410.055 84.1338V130.917" stroke="#1217A4" stroke-width="2"/>
<path d="M410.055 -3.02344V49.0952M410.055 -3.02344C407.82 11.7164 396.558 42.4137 369.385 47.2843M410.055 -3.02344C412.289 11.7164 423.602 42.4137 450.775 47.2843" stroke="#1217A4" stroke-width="2"/>
<path d="M662.636 261.295L647.996 251.528L642.909 259.054L659.669 269.372C661.32 270.388 663.287 270.763 665.197 270.424L679.553 267.875C680.373 263.665 681.187 261.212 681.187 261.212L665.383 262.048C664.41 262.099 663.447 261.835 662.636 261.295Z" fill="#91DAFD"/>
<path d="M650.815 263.956C651.333 262.102 651.893 258.525 651.721 255.982L647.195 261.671L650.815 263.956Z" fill="black"/>
<path d="M749.205 268.049C749.205 248.31 765.206 232.309 784.944 232.309C804.683 232.309 820.684 248.31 820.684 268.049V371.543H749.205V268.049Z" fill="#1217A4"/>
<path d="M758.464 310.17C762.136 301.697 749.709 292.942 742.931 300.568L749.144 372.021H767.784C776.822 370.665 775.692 363.548 773.998 360.159C779.42 356.544 778.516 350.933 777.387 348.58C784.843 342.479 780.493 334.553 777.387 331.352C783.261 322.992 777.575 318.078 773.998 316.666C770.834 307.402 762.324 308.476 758.464 310.17Z" fill="#080D86"/>
<mask id="mask2_464_979" style="mask-type:alpha" maskUnits="userSpaceOnUse" x="749" y="232" width="72" height="140">
<path d="M749.204 268.049C749.204 248.31 765.206 232.309 784.944 232.309C804.683 232.309 820.684 248.31 820.684 268.049V371.543H749.204V268.049Z" fill="#1217A4"/>
</mask>
<g mask="url(#mask2_464_979)">
<path d="M777.601 245.632L770.823 234.617L784.944 229.251V249.868H773.93V245.632H777.601Z" fill="#080D86"/>
<path d="M792.287 245.632L799.065 234.617L784.944 229.251V249.868H795.959V245.632H792.287Z" fill="#080D86"/>
</g>
<path d="M671.266 268.049C671.266 248.31 687.267 232.309 707.005 232.309C726.744 232.309 742.745 248.31 742.745 268.049V371.543H671.266V268.049Z" fill="#5865F2"/>
<path d="M677.725 268.049C677.725 248.31 693.726 232.309 713.465 232.309C733.203 232.309 749.204 248.31 749.204 268.049V371.543H677.725V268.049Z" fill="#7F8AFF"/>
<path d="M686.973 268.447C686.973 253.642 698.975 241.64 713.78 241.64C728.584 241.64 740.586 253.642 740.586 268.447L740.586 290.853H686.973L686.973 268.447Z" fill="#5865F2"/>
<path fill-rule="evenodd" clip-rule="evenodd" d="M737.827 290.853H740.586L740.586 268.447C740.586 253.642 728.584 241.64 713.779 241.64C713.317 241.64 712.857 241.652 712.4 241.675C726.564 242.393 737.827 254.105 737.827 268.447L737.827 290.853Z" fill="#4553E5"/>
<ellipse cx="692.5" cy="302.748" rx="5.52656" ry="5.64847" fill="#A9B0FF"/>
<rect x="686.973" y="314.642" width="53.6124" height="48.5686" fill="#5865F2"/>
<rect x="737.702" y="314.642" width="2.88339" height="48.5686" fill="#4553E5"/>
<path fill-rule="evenodd" clip-rule="evenodd" d="M819.817 260.05C820.384 262.574 820.684 265.199 820.684 267.894L820.684 298.505C817.615 299.303 814.69 299.999 812.173 300.538C808.047 301.421 804.217 303.625 801.727 307.031L776.418 341.651L761.144 332.322L781.468 289.675C782.54 287.425 784.167 285.485 786.196 284.037L819.817 260.05Z" fill="url(#paint7_linear_464_979)"/>
<path d="M793.61 322.889C794.237 322.201 794.385 321.192 793.92 320.386C787.983 310.088 776.663 307.93 772.571 307.482C771.652 307.381 770.812 307.925 770.453 308.778L760.191 333.148L775.373 342.916L793.61 322.889Z" fill="white"/>
<path d="M741.368 325.681C742.744 325.815 745.553 326.496 747.347 331.028L768.266 354.807L766.055 357.426C756.791 353.833 740.425 340.936 738.711 334.103C737.368 328.752 739.993 325.546 741.368 325.681Z" fill="black"/>
<path d="M760.379 328.74C768.124 329.939 773.774 335.96 777.48 340.158C777.822 340.545 777.855 341.113 777.563 341.539L768.123 355.337C765.485 354.429 751.2 345.329 751.657 338.493C752.088 332.058 745.578 325.204 743.652 323.964C744.641 322.913 746.82 321.76 750.014 324.031C751.836 325.326 753.285 327.213 754.349 329.011C755.35 330.703 758.153 331.022 759.217 329.369L759.301 329.237C759.534 328.875 759.954 328.674 760.379 328.74Z" fill="#57F287"/>
<path d="M751.988 337.786C751.123 330.85 747.137 326.474 743.705 323.998C742.973 323.527 741.345 323.553 740.633 325.972C741.935 325.736 748.239 329.42 749.127 338.247C750.092 347.846 759.715 353.909 766.474 357.695C768.926 357.563 768.01 355.306 768.01 355.306C762.228 352.337 753.083 346.57 751.988 337.786Z" fill="#29CC7A"/>
<path d="M790.949 325.75C785.784 316.685 774.185 312.86 769.031 312.08L768.32 313.764C780.504 315.813 787.634 323.573 789.676 327.197L790.949 325.75Z" fill="#91DAFD"/>
<path d="M788.054 328.903C782.888 319.838 772.514 316.95 767.36 316.171L766.648 317.855C778.833 319.903 784.738 326.726 786.78 330.35L788.054 328.903Z" fill="#91DAFD"/>
<path d="M497.862 155.749C498.445 154.847 498.817 152.513 498.445 150.02L501.31 153.999C500.567 154.635 500.355 155.06 500.991 157.765C501.628 160.47 500.938 161.69 499.931 161.531C498.923 161.372 499.718 159.622 499.931 157.765C500.143 155.908 499.294 155.749 498.87 156.598C498.445 157.447 497.278 156.651 497.862 155.749Z" fill="#FFE76B"/>
<path d="M505.494 125.88C502.608 125.443 501.296 129.29 502.695 130.777C507.097 131.914 517.176 134.834 521.583 135.324C525.99 135.814 525.693 132.322 525.081 130.777C519.514 129.29 507.802 126.23 505.494 125.88Z" fill="#FF8C19"/>
<path d="M501.483 154.449C502.245 148.155 507.991 137.435 522.282 134.675C523.238 134.491 523.38 132.615 522.43 132.4L504.995 128.445C504.427 128.316 503.824 128.456 503.393 128.848C495.015 136.469 497.174 148.656 500.056 154.84C500.344 155.457 501.402 155.125 501.483 154.449Z" fill="#FFE76B"/>
<ellipse cx="504.362" cy="131.764" rx="2.22982" ry="1.19869" fill="#EA479D"/>
<ellipse cx="502.81" cy="136.205" rx="1.55213" ry="0.834377" fill="#EA479D"/>
<ellipse cx="501.682" cy="142.428" rx="1.97565" ry="1.25026" fill="#EA479D"/>
<ellipse cx="510.506" cy="135.371" rx="3.00992" ry="1.61804" fill="#EA479D"/>
<path d="M504.954 148.798C505.608 147.779 504.75 146.091 503.933 147.113L504.546 143.18L507.917 141.954C505.72 143.538 506.411 147.113 507.33 148.798C507.917 149.873 506.979 151.089 506.11 151.293C505.242 151.497 503.933 150.391 504.954 148.798Z" fill="#FFE76B"/>
<path d="M505.067 142.323C503.726 142.674 502.339 141.813 502.339 141.813C502.339 141.813 503.126 140.384 504.468 140.033C505.809 139.682 507.196 140.543 507.196 140.543C507.196 140.543 506.408 141.972 505.067 142.323Z" fill="#57F287"/>
<path d="M509.831 133.297C510.322 134.143 509.997 135.249 509.997 135.249C509.997 135.249 508.876 134.982 508.385 134.136C507.894 133.29 508.218 132.184 508.218 132.184C508.218 132.184 509.339 132.451 509.831 133.297Z" fill="#57F287"/>
<ellipse cx="672.957" cy="156.138" rx="3.70552" ry="0.504373" fill="#EA479D"/>
<path fill-rule="evenodd" clip-rule="evenodd" d="M677.297 156.768C677.693 157.087 678.015 157.348 678.015 158.199V163.093V163.544V170.136C678.015 171.255 677.693 171.599 677.297 172.02C677.094 172.237 676.871 172.475 676.663 172.85H674.537H671.414H669.288C669.08 172.475 668.857 172.237 668.653 172.02C668.258 171.599 667.936 171.255 667.936 170.136V163.544V163.093V158.199C667.936 157.349 668.258 157.088 668.653 156.768C668.857 156.603 669.08 156.423 669.288 156.138H671.414V156.138H676.663C676.871 156.423 677.094 156.603 677.297 156.768Z" fill="#FF8C19"/>
<path d="M678.015 158.328C675.954 162.423 670.437 163.405 667.936 163.383V168.729C673.036 169.708 676.78 167.183 678.015 165.315V158.328Z" fill="white"/>
<ellipse cx="737.925" cy="115.107" rx="3.70552" ry="0.504373" fill="#1217A4"/>
<path fill-rule="evenodd" clip-rule="evenodd" d="M742.266 115.737C742.661 116.057 742.984 116.318 742.984 117.168V122.063V122.514V129.105C742.984 130.225 742.661 130.569 742.266 130.99C742.062 131.207 741.839 131.445 741.631 131.82H739.506H736.382H734.257C734.049 131.445 733.826 131.207 733.622 130.99C733.227 130.569 732.904 130.225 732.904 129.105V122.514V122.063V117.168C732.904 116.318 733.227 116.057 733.622 115.737C733.826 115.573 734.049 115.392 734.257 115.107H736.382V115.107H741.631C741.839 115.392 742.062 115.572 742.266 115.737Z" fill="#1217A4"/>
<ellipse cx="762.704" cy="126.098" rx="3.70552" ry="0.504373" transform="rotate(90 762.704 126.098)" fill="#1217A4"/>
<path fill-rule="evenodd" clip-rule="evenodd" d="M762.074 130.438C761.754 130.834 761.493 131.156 760.643 131.156L755.749 131.156L755.297 131.156L748.706 131.156C747.586 131.156 747.243 130.834 746.821 130.438C746.604 130.235 746.367 130.012 745.991 129.804L745.991 127.678L745.991 124.555L745.991 122.429C746.367 122.221 746.604 121.998 746.821 121.795C747.243 121.399 747.586 121.077 748.706 121.077L755.297 121.077L755.297 121.077L760.643 121.077C761.493 121.077 761.754 121.399 762.074 121.795C762.238 121.998 762.419 122.221 762.704 122.429L762.704 124.555L762.704 124.555L762.704 129.804C762.419 130.012 762.239 130.235 762.074 130.438Z" fill="#1217A4"/>
<path d="M630.189 327.047L646.187 329.341L643.63 362.584L633.861 361.207L630.189 327.047Z" fill="url(#paint8_linear_464_979)"/>
<path d="M615.174 327.047L631.173 329.341L628.616 362.584L618.846 361.207L615.174 327.047Z" fill="url(#paint9_linear_464_979)"/>
<path d="M611.1 334.559C606.35 317.995 608.533 301.547 610.466 294.377C610.632 293.762 611.143 293.316 611.769 293.203L645.172 287.181C646.129 287.008 647.035 287.675 647.154 288.641L652.488 331.937C652.57 332.605 652.258 333.25 651.655 333.55C647.793 335.472 632.703 341.825 612.219 335.686C611.682 335.525 611.255 335.098 611.1 334.559Z" fill="#1217A4"/>
<circle cx="643.099" cy="256.282" r="8.65327" fill="#7F8AFF"/>
<path d="M606.997 294.729C607.775 298.505 615.953 302.354 623.698 298.505L647.177 302.354V276.8C647.657 271.307 648.925 257.912 641.852 253.341C633.797 248.134 614.394 248.36 606.126 256.916C599.979 264.886 605.442 270.535 607.844 276.8C611.67 286.778 605.072 285.382 606.997 294.729Z" fill="url(#paint10_linear_464_979)"/>
<path d="M616.685 259.561L615.439 257.594L609.538 261.069L612.421 275.315C613.338 274.266 615.83 270.808 616.685 267.447C617.346 264.85 617.666 262.333 616.685 259.561Z" fill="black"/>
<path d="M615.566 254.61C618.703 251.459 619.923 246.076 620.141 243.778H633.73C633.207 247.717 638.192 250.922 639.5 252.891C638.248 253.93 636.642 256.345 634.957 256.778C634.135 256.989 633.34 255.172 632.457 255.267C631.447 255.375 630.343 257.379 629.293 257.361C624.108 257.271 618.692 255.804 615.566 254.61Z" fill="#91DAFD"/>
<path d="M632.061 254.406C629.948 255.124 616.836 254.366 618.313 250.447C616.377 249.639 614.001 250.97 613.601 252.17C611.631 258.079 621.064 263.392 628.204 261.832C633.177 260.746 632.772 256.074 632.061 254.406Z" fill="#0C1AAD"/>
<path d="M637.375 250.571C636.784 252.935 634.174 253.772 631.958 254.428C632.697 260.255 639.918 260.419 642.052 256.07C643.845 252.414 638.715 250.681 637.375 250.571Z" fill="#0C1AAD"/>
<path d="M619.462 268.104C618.313 263.808 615.299 254.767 609.538 254.428C610.083 253.863 612.28 251.945 613.732 252.235C615.547 252.598 622.367 257.998 624.243 266.047L644.273 262.779C643.849 259.451 643.978 252.576 638.761 250.891C639.679 250.993 643.179 251.231 645.389 254.919C647.443 258.348 651.897 290.13 653.107 328.858C650.082 332.731 633.985 336.241 622.367 334.183C624.061 314.456 622.488 290.13 619.462 268.104Z" fill="white"/>
<path d="M627.121 286.667C626.521 286.487 626.616 285.61 627.241 285.563L669.041 282.412C670.009 282.339 670.982 282.445 671.911 282.724L682.938 286.038C684.737 286.579 684.451 289.209 682.578 289.35L646.845 292.044C645.877 292.117 644.904 292.011 643.974 291.732L627.121 286.667Z" fill="#7F8AFF"/>
<path d="M603.575 279.749L603.003 261.447L612.08 260.116L612.669 274.392C612.719 275.622 613.433 276.728 614.533 277.281L630.476 285.289L629.508 291.341L606.691 283.904C604.881 283.314 603.634 281.652 603.575 279.749Z" fill="#91DAFD"/>
<circle cx="606.913" cy="260.384" r="8.65327" fill="#7F8AFF"/>
<path d="M635.777 287.718C634.262 286.977 635.235 286.432 636.189 285.652C636.738 285.203 636.496 284.436 635.806 284.269C629.532 282.754 627.713 287.481 628.198 290.164C628.716 293.026 634.391 295.612 636.283 295.698C638.175 295.784 640.601 293.151 640.047 290.889C639.493 288.627 638.379 288.991 635.777 287.718Z" fill="#91DAFD"/>
<path d="M637.275 287.147L644.599 289.535C645.942 289.973 647.358 290.141 648.766 290.031L665.005 288.756" stroke="#5865F2" stroke-width="2" stroke-linecap="round"/>
<path d="M654.385 287.319C654.43 287.993 652.567 288.094 650.271 288.247C647.975 288.399 646.115 288.546 646.07 287.872C646.025 287.198 647.812 285.958 650.108 285.805C652.405 285.653 654.34 286.645 654.385 287.319Z" fill="#FFE456"/>
<path d="M647.857 284.886C647.902 285.56 646.039 285.661 643.742 285.814C641.446 285.967 639.586 286.113 639.541 285.439C639.497 284.765 641.284 283.525 643.58 283.373C645.876 283.22 647.812 284.212 647.857 284.886Z" fill="#FFE456"/>
<path d="M666.105 286.54C666.15 287.214 664.287 287.315 661.991 287.467C659.695 287.62 657.835 287.767 657.79 287.093C657.745 286.419 659.532 285.179 661.829 285.026C664.125 284.873 666.061 285.866 666.105 286.54Z" fill="#FFE456"/>
<path d="M659.577 284.107C659.622 284.781 657.759 284.882 655.463 285.034C653.167 285.187 651.307 285.334 651.262 284.66C651.217 283.986 653.004 282.746 655.3 282.593C657.597 282.44 659.532 283.432 659.577 284.107Z" fill="#FFE456"/>
<path d="M677.826 285.76C677.871 286.434 676.008 286.535 673.711 286.688C671.415 286.841 669.555 286.988 669.51 286.313C669.466 285.639 671.253 284.399 673.549 284.247C675.845 284.094 677.781 285.086 677.826 285.76Z" fill="#FFE456"/>
<path d="M671.297 283.327C671.342 284.001 669.479 284.102 667.183 284.255C664.887 284.408 663.027 284.554 662.982 283.88C662.937 283.206 664.724 281.966 667.021 281.813C669.317 281.661 671.253 282.653 671.297 283.327Z" fill="#FFE456"/>
<path d="M618.14 251.016C625.693 251.54 632.002 248.47 634.188 246.547L619.714 245.902L618.14 251.016Z" fill="black"/>
<path d="M644.973 366.334L650.68 368.898L646.497 374.408L633.589 371.245C633.589 371.245 632.52 370.427 633.589 368.337C634.659 366.247 633.334 355.634 633.334 355.634H643.639V364.273C643.639 365.163 644.161 365.969 644.973 366.334Z" fill="#91DAFD"/>
<path d="M646.895 372.312C635.609 373.046 633.063 369.827 633.742 368.082C631.745 370.611 632.327 373.584 633.162 375.406C633.474 376.085 634.188 376.448 634.935 376.448H648.027C655.384 376.448 662.72 375.122 660.577 373.387C658.986 372.1 652.353 369.131 649.367 367.84C648.981 367.674 648.537 367.738 648.212 368.005L646.673 369.264C646.052 369.772 646.143 370.746 646.847 371.13L647.122 371.28C647.611 371.546 647.451 372.276 646.895 372.312Z" fill="#6C77F5"/>
<path d="M629.958 366.334L635.665 368.898L631.482 374.408L618.574 371.245C618.574 371.245 617.505 370.427 618.574 368.337C619.644 366.247 618.319 355.634 618.319 355.634H628.624V364.273C628.624 365.163 629.146 365.969 629.958 366.334Z" fill="#91DAFD"/>
<path d="M631.88 372.312C620.594 373.046 618.048 369.827 618.727 368.082C616.73 370.611 617.312 373.584 618.148 375.406C618.459 376.085 619.173 376.448 619.92 376.448H633.012C640.37 376.448 647.107 376.886 644.955 373.825C643.779 372.152 637.316 369.138 634.351 367.842C633.966 367.673 633.522 367.738 633.197 368.005L631.658 369.264C631.037 369.772 631.128 370.746 631.832 371.13L632.107 371.28C632.596 371.546 632.436 372.276 631.88 372.312Z" fill="#7F8AFF"/>
<path d="M609.271 223.756C614.473 214.508 623.266 212.745 631.713 219.54C654.699 238.029 626.831 258.728 612.316 244.47C606.382 238.642 605.6 230.282 609.271 223.756Z" fill="#91DAFD"/>
<path d="M616.42 339.242C619.699 340.711 627.162 339.176 630.484 338.226C625.042 338.521 618.868 337.384 616.191 336.718L616.42 339.242Z" fill="black"/>
<path d="M631.661 340.656C640.02 338.853 642.746 337.537 645.729 335.931C640.724 337.363 635.433 338.175 631.386 338.258L631.661 340.656Z" fill="black"/>
<path d="M616.795 226.248C619.02 225.61 620.424 227.652 621.154 228.436C617.579 227.24 616.394 229.993 616.248 231.519C614.825 230.224 614.57 226.886 616.795 226.248Z" fill="#63B8FA"/>
<path d="M626.311 235.588C628.665 234.275 629.857 229.634 632.12 231.025C634.465 232.602 637.054 238.667 628.905 242.362C620.755 246.056 617.979 240.875 619.09 238.225C619.822 236.477 622.948 237.462 626.311 235.588Z" fill="black"/>
<path d="M621.021 228.314C621.474 228.573 621.701 228.948 621.398 229.317C621.273 229.469 620.916 229.585 620.48 229.317C619.551 228.747 618.078 228.81 617.5 229.809C616.922 230.808 617.292 231.365 617.292 231.743C617.292 232.121 617.017 232.332 616.838 232.394C615.624 232.818 615.08 232.096 614.821 231.743C615.037 231.813 615.31 231.878 615.564 231.798C616.104 231.629 616.114 230.9 616.224 230.345C616.484 229.028 617.448 226.793 621.021 228.314Z" fill="black"/>
<path d="M626.51 221.961C624.813 223.536 625.835 225.794 626.129 226.824C626.954 223.146 629.923 223.555 631.304 224.219C630.932 222.332 628.207 220.387 626.51 221.961Z" fill="#63B8FA"/>
<path d="M626.093 226.647C626.081 227.168 626.283 227.557 626.756 227.488C626.951 227.46 627.235 227.215 627.231 226.703C627.223 225.613 628.039 224.385 629.193 224.407C630.347 224.428 630.633 225.033 630.956 225.229C631.28 225.424 631.602 225.298 631.748 225.178C632.739 224.357 632.402 223.519 632.234 223.115C632.182 223.335 632.096 223.602 631.897 223.779C631.473 224.153 630.844 223.785 630.312 223.592C629.051 223.133 626.639 222.803 626.093 226.647Z" fill="black"/>
<path fill-rule="evenodd" clip-rule="evenodd" d="M632.687 231.491C629.146 239.371 621.521 239.438 618.865 239.201C618.889 238.855 618.965 238.524 619.09 238.225C619.474 237.309 620.516 237.144 621.906 236.924C623.166 236.724 624.712 236.479 626.311 235.588C627.245 235.067 627.996 234.023 628.704 233.039C629.779 231.542 630.755 230.186 632.12 231.025C632.309 231.152 632.5 231.309 632.687 231.491Z" fill="white"/>
<path d="M628.433 240.293C626.456 240.632 625.162 242.623 624.761 243.576C629.45 243.011 632.48 240.502 633.42 238.916C630.455 238.04 628.857 239.446 628.433 240.293Z" fill="#F259A7"/>
<path d="M614.685 212.904C622.492 212.103 629.322 214.371 629.503 216.781C629.684 219.191 625.233 220.841 622.735 219.746C623.112 221.976 622.107 225.91 615.072 223.804C615.216 225.415 613.022 227.549 610.522 228.306C611.974 231.536 612.909 236.422 609.515 238.268C604.886 240.786 602.401 229.346 603.078 226.689C601.193 226.704 597.721 229.714 601.568 235.671C605.1 241.14 600.343 250.034 591.622 248.161C591.04 248.036 591.096 247.109 591.656 246.906C594.858 245.744 598.474 242.826 594.659 238.63C582.794 225.582 596.74 208.064 609.463 214.888C610.846 213.853 612.575 213.121 614.685 212.904Z" fill="#FF78B9"/>
<path d="M607.565 220.246C607.307 218.904 607.34 215.939 609.542 214.809C608.187 213.962 604.93 213.468 603.47 213.326C605.108 213.496 605.424 215.091 605.377 215.868C602.777 215.279 599.869 218.127 600.152 218.127C601.846 217.224 602.741 218.504 602.976 219.257C600.378 220.161 599.493 223.588 599.375 225.188C599.827 223.719 601.54 222.646 602.341 222.293C601.832 223.931 602.552 225.847 602.976 226.6C602.637 221.573 605.894 220.269 607.565 220.246Z" fill="#F259A7"/>
<path d="M927.541 316.693C917.656 283.932 891.673 284.215 840.837 278.566V342.037C838.036 342.316 835.029 342.533 831.799 342.676C803.283 343.944 784.23 366.209 776.946 379.334C776.645 379.878 777.535 380.688 778.092 380.409C783.639 377.636 799.896 372.048 840.837 372.048C908.901 372.048 937.293 349.015 927.541 316.693Z" fill="url(#paint11_linear_464_979)"/>
<g style="mix-blend-mode:multiply" opacity="0.38">
<ellipse cx="869.79" cy="301.229" rx="10.0982" ry="8.70671" fill="#29AFCC"/>
</g>
<ellipse cx="827.422" cy="365.075" rx="3.95285" ry="3.40816" fill="#29CC7A"/>
<g style="mix-blend-mode:multiply" opacity="0.38">
<ellipse cx="850.597" cy="305.251" rx="5.69867" ry="4.02284" fill="#29AFCC"/>
</g>
<g style="mix-blend-mode:multiply" opacity="0.38">
<ellipse cx="921.621" cy="333.028" rx="3.12376" ry="2.20514" fill="#29AFCC"/>
</g>
<ellipse cx="866.477" cy="361.366" rx="4.07132" ry="3.31362" transform="rotate(-90 866.477 361.366)" fill="#29CC7A"/>
<g style="mix-blend-mode:multiply" opacity="0.38">
<ellipse cx="854.429" cy="294.707" rx="2.8625" ry="2.94121" fill="#29AFCC"/>
</g>
<g style="mix-blend-mode:multiply" opacity="0.38">
<ellipse cx="880.646" cy="313.332" rx="2.8625" ry="2.94121" fill="#29AFCC"/>
</g>
<ellipse cx="859.086" cy="358.217" rx="1.98118" ry="2.03566" fill="#29CC7A"/>
<path d="M886.566 320.261C884.239 324.914 873.412 336.292 840.837 342.037" stroke="black" stroke-width="2" stroke-linecap="round"/>
<path d="M873.448 288.9L845.952 285.652C844.16 285.441 843.327 283.317 844.497 281.943L860.735 262.891C861.783 261.662 863.744 261.896 864.472 263.338L875.73 285.638C876.542 287.246 875.237 289.111 873.448 288.9Z" fill="#EA479D"/>
<path d="M856.19 349.118L833.953 353.295C832.154 353.633 830.721 351.803 831.48 350.137L841.098 329.044C841.811 327.481 843.938 327.254 844.965 328.631L857.584 345.547C858.583 346.886 857.833 348.81 856.19 349.118Z" fill="#EA479D"/>
<path d="M823.91 354.667L809.772 358.237C807.997 358.685 806.454 356.947 807.11 355.238L812.459 341.288C813.074 339.684 815.183 339.326 816.293 340.637L825.081 351.017C826.161 352.292 825.531 354.258 823.91 354.667Z" fill="#EA479D"/>
<path d="M802.233 360.679L794.334 364.877C792.717 365.736 790.803 364.417 791.031 362.6L792.174 353.506C792.388 351.801 794.351 350.95 795.742 351.958L802.498 356.854C803.852 357.835 803.709 359.894 802.233 360.679Z" fill="#EA479D"/>
<path d="M904.566 302.297L881.941 291.665C880.586 291.028 880.214 289.274 881.193 288.142L894.712 272.516C895.851 271.201 897.986 271.611 898.556 273.255L907.661 299.512C908.316 301.401 906.375 303.147 904.566 302.297Z" fill="#EA479D"/>
<path d="M866.63 347.235L888.938 341.992C890.378 341.654 891.11 340.046 890.42 338.738L878.849 316.807C877.948 315.099 875.459 315.235 874.749 317.031L864.012 344.205C863.341 345.901 864.854 347.652 866.63 347.235Z" fill="#EA479D"/>
<path d="M914.552 323.42L908.586 311.769C908.339 311.287 908.274 310.731 908.402 310.205L912.857 291.929C913.473 289.398 917.177 289.748 917.308 292.35L918.82 322.276C918.942 324.708 915.662 325.587 914.552 323.42Z" fill="#EA479D"/>
<path d="M898.435 340.11L912.015 332.828C912.99 332.305 913.443 331.152 913.085 330.105L905.409 307.669C904.662 305.484 901.505 305.695 901.055 307.96L895.151 337.678C894.779 339.551 896.753 341.012 898.435 340.11Z" fill="#EA479D"/>
<path d="M460.977 348.042C446.009 341.547 426.804 331.944 392.63 339.005C371.567 343.357 372.568 364.443 390.089 370.354C408.842 376.68 466.72 375.908 486.678 374.873L487.866 360.928C484.477 360.74 478.273 355.549 460.977 348.042Z" fill="url(#paint12_linear_464_979)"/>
<path d="M462.539 359.369C460.941 358.232 459.029 358.343 456.902 359.7C454.467 361.254 453.384 364.194 453.419 367.083C453.497 373.618 454.959 382.381 460.406 384.977C465.99 387.637 468.399 385.406 469.718 383.18C470.182 382.396 471.129 382.026 471.996 382.306C477.67 384.137 481.705 382.048 484.098 379.533C485.116 378.464 487.464 378.483 488.716 379.262C491.501 380.995 495.329 380.232 496.835 377.848C498.187 375.707 496.173 366.5 494.227 360.489C493.513 358.283 492.129 356.279 490.048 355.257C485.52 353.031 483.317 355.533 482.114 358.089C481.61 359.159 480.25 359.569 479.256 358.929C473.353 355.124 469.111 356.745 466.657 359.211C465.665 360.208 463.685 360.185 462.539 359.369Z" fill="#57F287"/>
<path fill-rule="evenodd" clip-rule="evenodd" d="M464.785 359.178C466.619 360.309 467.681 361.474 468.584 364.153L468.597 364.191L468.606 364.231L467.781 364.423C468.606 364.231 468.606 364.231 468.606 364.231L468.682 364.552C468.73 364.76 468.801 365.063 468.891 365.442C469.07 366.199 469.321 367.259 469.612 368.469C470.195 370.892 470.935 373.912 471.569 376.316C472.005 377.971 472.141 379.742 471.671 381.43C471.195 383.139 470.116 384.695 468.245 385.919C467.854 386.175 467.328 386.065 467.072 385.674C466.816 385.282 466.926 384.757 467.317 384.501C468.862 383.49 469.678 382.268 470.038 380.976C470.404 379.664 470.316 378.213 469.93 376.748C469.292 374.325 468.548 371.291 467.965 368.866C467.673 367.652 467.421 366.59 467.242 365.831C467.152 365.452 467.081 365.148 467.032 364.939L466.966 364.656C466.158 362.285 464.855 360.643 463.435 359.767C462.692 359.309 460.546 358.564 458.706 358.759C460.699 357.848 462.935 358.036 464.785 359.178Z" fill="black"/>
<path fill-rule="evenodd" clip-rule="evenodd" d="M480.45 362.023L479.628 362.227L479.623 362.208L479.619 362.189C479.042 359.316 476.442 356.859 471.919 356.562C470.584 356.474 479.753 354.343 481.277 361.836L481.348 362.12C481.396 362.316 481.468 362.601 481.557 362.958C481.736 363.672 481.987 364.675 482.279 365.829C482.862 368.137 483.603 371.045 484.237 373.454C484.673 375.109 484.81 376.881 484.34 378.569C483.864 380.277 482.785 381.833 480.914 383.057C480.522 383.313 479.997 383.204 479.741 382.812C479.485 382.421 479.595 381.895 479.986 381.639C481.531 380.629 482.347 379.406 482.707 378.114C483.072 376.802 482.985 375.352 482.599 373.886C481.962 371.468 481.219 368.553 480.636 366.244C480.344 365.089 480.092 364.085 479.913 363.369C479.824 363.012 479.752 362.726 479.703 362.53L479.628 362.227C479.628 362.227 479.628 362.227 480.45 362.023Z" fill="black"/>
<path d="M479.073 359.957C478.926 360.489 479.238 361.04 479.77 361.187C480.302 361.335 480.853 361.023 481.001 360.49L479.073 359.957ZM492.343 357.452L493.172 356.892L492.343 357.452ZM496.838 372.28L497.836 372.204L496.838 372.28ZM481.001 360.49C481.863 357.375 484.008 356.124 486.184 355.943C488.477 355.752 490.664 356.751 491.514 358.011L493.172 356.892C491.817 354.885 488.835 353.715 486.018 353.95C483.084 354.194 480.179 355.962 479.073 359.957L481.001 360.49ZM491.514 358.011C493.596 361.097 495.399 366.561 495.841 372.356L497.836 372.204C497.375 366.165 495.498 360.34 493.172 356.892L491.514 358.011ZM495.841 372.356C495.97 374.039 496.108 375.32 495.854 376.481C495.621 377.543 495.039 378.548 493.529 379.537L494.624 381.21C496.529 379.964 497.451 378.531 497.807 376.91C498.141 375.388 497.953 373.739 497.836 372.204L495.841 372.356Z" fill="black"/>
<path d="M464.743 391.591C464.244 389.893 463.528 387.731 462.813 386.231C462.347 385.254 462.205 383.951 463.053 383.278C464.278 382.307 465.777 381.989 467.013 381.964C468.01 381.943 468.736 382.799 468.762 383.796C468.905 389.316 467.71 391.743 466.521 392.616C465.799 393.146 464.996 392.451 464.743 391.591Z" fill="white"/>
<path d="M477.238 389.052C476.687 387.165 475.876 384.707 475.073 383.062C474.598 382.089 474.451 380.794 475.283 380.101C476.66 378.954 478.384 378.607 479.772 378.599C480.77 378.593 481.493 379.449 481.522 380.446C481.701 386.606 480.343 389.224 479.028 390.111C478.284 390.612 477.489 389.912 477.238 389.052Z" fill="white"/>
<path d="M490.434 385.944C490.083 384.009 489.532 381.481 488.905 379.761C488.534 378.744 488.523 377.44 489.423 376.838C490.911 375.841 492.663 375.675 494.044 375.812C495.036 375.91 495.666 376.837 495.591 377.831C495.128 383.976 493.504 386.439 492.103 387.184C491.312 387.604 490.594 386.826 490.434 385.944Z" fill="white"/>
<path d="M602.2 107.135L599.517 117.302C601.776 117.679 608.907 118.503 612.296 121.892" stroke="#62B8FA" stroke-width="2" stroke-linecap="round" stroke-linejoin="round"/>
</g>
<defs>
<linearGradient id="paint0_linear_464_979" x1="618.636" y1="104.417" x2="619.746" y2="150.379" gradientUnits="userSpaceOnUse">
<stop stop-color="#8CD9FF"/>
<stop offset="0.833105" stop-color="#62B7F9"/>
</linearGradient>
<linearGradient id="paint1_linear_464_979" x1="584.06" y1="170.03" x2="569.952" y2="147.566" gradientUnits="userSpaceOnUse">
<stop stop-color="#57F287"/>
<stop offset="1" stop-color="#29CC7A"/>
</linearGradient>
<linearGradient id="paint2_linear_464_979" x1="575.584" y1="171.654" x2="568.202" y2="150.541" gradientUnits="userSpaceOnUse">
<stop stop-color="#57F287"/>
<stop offset="1" stop-color="#29CC7A"/>
</linearGradient>
<linearGradient id="paint3_linear_464_979" x1="582.161" y1="103.23" x2="582.161" y2="134.602" gradientUnits="userSpaceOnUse">
<stop stop-color="#FF78B9"/>
<stop offset="1" stop-color="#EA479D"/>
</linearGradient>
<linearGradient id="paint4_linear_464_979" x1="524.527" y1="379.156" x2="524.527" y2="355.444" gradientUnits="userSpaceOnUse">
<stop stop-color="#66BCFF"/>
<stop offset="1" stop-color="#8CD9FF"/>
</linearGradient>
<linearGradient id="paint5_linear_464_979" x1="458.762" y1="296.527" x2="426.595" y2="261.814" gradientUnits="userSpaceOnUse">
<stop stop-color="#EB459F"/>
<stop offset="1" stop-color="#FF78B9"/>
</linearGradient>
<linearGradient id="paint6_linear_464_979" x1="498.165" y1="277.578" x2="482.247" y2="235.778" gradientUnits="userSpaceOnUse">
<stop stop-color="#EB459F"/>
<stop offset="1" stop-color="#FF78B9"/>
</linearGradient>
<linearGradient id="paint7_linear_464_979" x1="825.173" y1="278.849" x2="783.939" y2="309.915" gradientUnits="userSpaceOnUse">
<stop stop-color="#ED5F00"/>
<stop offset="1" stop-color="#FF8C19"/>
</linearGradient>
<linearGradient id="paint8_linear_464_979" x1="637.248" y1="336.353" x2="636.403" y2="357.159" gradientUnits="userSpaceOnUse">
<stop stop-color="#62B7F9"/>
<stop offset="0.748688" stop-color="#8CD9FF"/>
</linearGradient>
<linearGradient id="paint9_linear_464_979" x1="622.234" y1="336.353" x2="621.388" y2="357.159" gradientUnits="userSpaceOnUse">
<stop stop-color="#62B7F9"/>
<stop offset="0.748688" stop-color="#8CD9FF"/>
</linearGradient>
<linearGradient id="paint10_linear_464_979" x1="625.444" y1="285.084" x2="625.444" y2="302.354" gradientUnits="userSpaceOnUse">
<stop stop-color="#7F8AFF"/>
<stop offset="1" stop-color="#5B68F2"/>
</linearGradient>
<linearGradient id="paint11_linear_464_979" x1="873.587" y1="348.748" x2="897.705" y2="267.597" gradientUnits="userSpaceOnUse">
<stop stop-color="#57F287"/>
<stop offset="1" stop-color="#29CC7A"/>
</linearGradient>
<linearGradient id="paint12_linear_464_979" x1="399.251" y1="358.767" x2="473.556" y2="348.873" gradientUnits="userSpaceOnUse">
<stop stop-color="#57F287"/>
<stop offset="1" stop-color="#29CC7A"/>
</linearGradient>
<clipPath id="clip0_464_979">
<rect width="1180" height="400" fill="white"/>
</clipPath>
</defs>
</svg>
